<svg xmlns="http://www.w3.org/2000/svg" viewBox="0 0 1000 240" width="100%" font-family="ui-monospace, 'SF Mono', SFMono-Regular, Menlo, Consolas, 'Liberation Mono', monospace" role="img" aria-label="AI/ML flappy bird by @atikulmunna">
<!-- Source & credit: github.com/atikulmunna — do not reuse without attribution. --><metadata>Created by @atikulmunna (github.com/atikulmunna). All rights reserved.</metadata><title>@atikulmunna</title>
<style>
  .bg    { fill:#050507; }
  .twr   { fill:#0d1117; stroke:#3b2f63; stroke-width:1; }
  .twr-l { fill:#7c3aed; }
  .cap   { fill:#6d28d9; }
  .led   { fill:#c4b5fd; }
  .mot-l { fill:#a78bfa; stroke:#a78bfa; }
  .mot-d { fill:#241a47; stroke:#241a47; }
  .mlbl  { fill:#c4b5fd; }
  .bird  { fill:#7c3aed; }
  .belly { fill:#c4b5fd; }
  .wing  { fill:#6d28d9; }
  .tail  { fill:#6d28d9; }
  .eye   { fill:#ffffff; }
  .pupil { fill:#050507; }
  .beak  { stroke:#c4b5fd; stroke-width:2.4; fill:none; }
  .code  { fill:#3b2f63; }
  .gnd   { fill:#0d1117; stroke:#3b2f63; stroke-width:1; }
  .hud   { fill:#6d28d9; }
  .star  { fill:#7c3aed; }
  .sig   { fill:#7c3aed; }
  @media (prefers-color-scheme: dark) {
    .bg    { fill:#000000; }
    .twr-l { fill:#a78bfa; }
    .cap   { fill:#7c3aed; }
    .led   { fill:#ffffff; }
    .mot-l { fill:#c4b5fd; stroke:#c4b5fd; }
    .mot-d { fill:#2f2356; stroke:#2f2356; }
    .mlbl  { fill:#e9e3ff; }
    .bird  { fill:#a78bfa; }
    .wing  { fill:#7c3aed; }
    .tail  { fill:#7c3aed; }
    .belly { fill:#c4b5fd; }
    .beak  { stroke:#e9e3ff; }
    .code  { fill:#4b3f73; }
    .gnd   { stroke:#6d28d9; }
    .hud   { fill:#a78bfa; }
    .star  { fill:#a78bfa; }
    .sig   { fill:#a78bfa; }
  }
</style>
<rect class="bg" x="0" y="0" width="1000" height="240"/>
<circle class="star" cx="925" cy="207" r="1.7" opacity="0.7"><animate attributeName="cy" values="-8;226" dur="4.7s" begin="-2.8s" repeatCount="indefinite"/></circle><circle class="star" cx="424" cy="116" r="1.7" opacity="0.33"><animate attributeName="cy" values="-8;226" dur="9.6s" begin="-4.3s" repeatCount="indefinite"/></circle><circle class="star" cx="221" cy="99" r="1.7" opacity="0.28"><animate attributeName="cy" values="-8;226" dur="10.2s" begin="-7.3s" repeatCount="indefinite"/></circle><circle class="star" cx="421" cy="112" r="0.9" opacity="0.62"><animate attributeName="cy" values="-8;226" dur="5.7s" begin="-0.3s" repeatCount="indefinite"/></circle><circle class="star" cx="783" cy="128" r="0.9" opacity="0.59"><animate attributeName="cy" values="-8;226" dur="6.2s" begin="-6.0s" repeatCount="indefinite"/></circle><circle class="star" cx="363" cy="166" r="0.9" opacity="0.45"><animate attributeName="cy" values="-8;226" dur="8.0s" begin="-5.3s" repeatCount="indefinite"/></circle><circle class="star" cx="314" cy="19" r="0.9" opacity="0.5"><animate attributeName="cy" values="-8;226" dur="7.4s" begin="-4.4s" repeatCount="indefinite"/></circle><circle class="star" cx="447" cy="140" r="1.7" opacity="0.36"><animate attributeName="cy" values="-8;226" dur="9.2s" begin="-3.0s" repeatCount="indefinite"/></circle><circle class="star" cx="816" cy="43" r="1.7" opacity="0.32"><animate attributeName="cy" values="-8;226" dur="9.7s" begin="-0.4s" repeatCount="indefinite"/></circle><circle class="star" cx="276" cy="125" r="0.9" opacity="0.66"><animate attributeName="cy" values="-8;226" dur="5.1s" begin="-1.9s" repeatCount="indefinite"/></circle><circle class="star" cx="288" cy="66" r="0.9" opacity="0.64"><animate attributeName="cy" values="-8;226" dur="5.4s" begin="-1.4s" repeatCount="indefinite"/></circle><circle class="star" cx="107" cy="171" r="0.9" opacity="0.61"><animate attributeName="cy" values="-8;226" dur="5.9s" begin="-1.4s" repeatCount="indefinite"/></circle><circle class="star" cx="545" cy="200" r="0.9" opacity="0.55"><animate attributeName="cy" values="-8;226" dur="6.6s" begin="-1.1s" repeatCount="indefinite"/></circle><circle class="star" cx="975" cy="12" r="1.7" opacity="0.47"><animate attributeName="cy" values="-8;226" dur="7.7s" begin="-6.3s" repeatCount="indefinite"/></circle><circle class="star" cx="687" cy="212" r="0.9" opacity="0.66"><animate attributeName="cy" values="-8;226" dur="5.2s" begin="-2.8s" repeatCount="indefinite"/></circle><circle class="star" cx="988" cy="163" r="0.9" opacity="0.44"><animate attributeName="cy" values="-8;226" dur="8.2s" begin="-3.1s" repeatCount="indefinite"/></circle><circle class="star" cx="193" cy="17" r="1.7" opacity="0.49"><animate attributeName="cy" values="-8;226" dur="7.4s" begin="-6.9s" repeatCount="indefinite"/></circle><circle class="star" cx="950" cy="47" r="0.9" opacity="0.32"><animate attributeName="cy" values="-8;226" dur="9.7s" begin="-1.7s" repeatCount="indefinite"/></circle><circle class="star" cx="544" cy="177" r="0.9" opacity="0.39"><animate attributeName="cy" values="-8;226" dur="8.8s" begin="-7.9s" repeatCount="indefinite"/></circle><circle class="star" cx="445" cy="75" r="0.9" opacity="0.7"><animate attributeName="cy" values="-8;226" dur="4.7s" begin="-4.2s" repeatCount="indefinite"/></circle><circle class="star" cx="688" cy="90" r="0.9" opacity="0.6"><animate attributeName="cy" values="-8;226" dur="6.0s" begin="-3.8s" repeatCount="indefinite"/></circle><circle class="star" cx="238" cy="64" r="0.9" opacity="0.47"><animate attributeName="cy" values="-8;226" dur="7.8s" begin="-4.3s" repeatCount="indefinite"/></circle><circle class="star" cx="550" cy="180" r="0.9" opacity="0.32"><animate attributeName="cy" values="-8;226" dur="9.7s" begin="-3.2s" repeatCount="indefinite"/></circle><circle class="star" cx="559" cy="182" r="0.9" opacity="0.39"><animate attributeName="cy" values="-8;226" dur="8.8s" begin="-0.7s" repeatCount="indefinite"/></circle><circle class="star" cx="562" cy="118" r="0.9" opacity="0.38"><animate attributeName="cy" values="-8;226" dur="8.9s" begin="-4.2s" repeatCount="indefinite"/></circle><circle class="star" cx="450" cy="157" r="0.9" opacity="0.27"><animate attributeName="cy" values="-8;226" dur="10.4s" begin="-8.2s" repeatCount="indefinite"/></circle><circle class="star" cx="142" cy="189" r="0.9" opacity="0.37"><animate attributeName="cy" values="-8;226" dur="9.1s" begin="-1.6s" repeatCount="indefinite"/></circle><circle class="star" cx="449" cy="92" r="0.9" opacity="0.31"><animate attributeName="cy" values="-8;226" dur="9.9s" begin="-4.7s" repeatCount="indefinite"/></circle><circle class="star" cx="689" cy="118" r="0.9" opacity="0.54"><animate attributeName="cy" values="-8;226" dur="6.8s" begin="-2.0s" repeatCount="indefinite"/></circle><circle class="star" cx="899" cy="19" r="0.9" opacity="0.69"><animate attributeName="cy" values="-8;226" dur="4.8s" begin="-2.4s" repeatCount="indefinite"/></circle><circle class="star" cx="777" cy="147" r="0.9" opacity="0.56"><animate attributeName="cy" values="-8;226" dur="6.5s" begin="-2.1s" repeatCount="indefinite"/></circle><circle class="star" cx="349" cy="66" r="0.9" opacity="0.73"><animate attributeName="cy" values="-8;226" dur="4.3s" begin="-1.7s" repeatCount="indefinite"/></circle><circle class="star" cx="420" cy="178" r="0.9" opacity="0.5"><animate attributeName="cy" values="-8;226" dur="7.3s" begin="-1.9s" repeatCount="indefinite"/></circle><circle class="star" cx="278" cy="19" r="0.9" opacity="0.37"><animate attributeName="cy" values="-8;226" dur="9.0s" begin="-7.7s" repeatCount="indefinite"/></circle><circle class="star" cx="502" cy="24" r="1.7" opacity="0.49"><animate attributeName="cy" values="-8;226" dur="7.4s" begin="-4.2s" repeatCount="indefinite"/></circle><circle class="star" cx="442" cy="187" r="0.9" opacity="0.39"><animate attributeName="cy" values="-8;226" dur="8.7s" begin="-2.2s" repeatCount="indefinite"/></circle><circle class="star" cx="983" cy="138" r="0.9" opacity="0.29"><animate attributeName="cy" values="-8;226" dur="10.1s" begin="-2.8s" repeatCount="indefinite"/></circle><circle class="star" cx="362" cy="32" r="1.7" opacity="0.67"><animate attributeName="cy" values="-8;226" dur="5.0s" begin="-3.7s" repeatCount="indefinite"/></circle><circle class="star" cx="396" cy="148" r="1.7" opacity="0.41"><animate attributeName="cy" values="-8;226" dur="8.5s" begin="-7.8s" repeatCount="indefinite"/></circle><circle class="star" cx="655" cy="37" r="0.9" opacity="0.74"><animate attributeName="cy" values="-8;226" dur="4.2s" begin="-0.8s" repeatCount="indefinite"/></circle><circle class="star" cx="19" cy="133" r="0.9" opacity="0.34"><animate attributeName="cy" values="-8;226" dur="9.5s" begin="-4.5s" repeatCount="indefinite"/></circle><circle class="star" cx="709" cy="124" r="0.9" opacity="0.64"><animate attributeName="cy" values="-8;226" dur="5.5s" begin="-3.3s" repeatCount="indefinite"/></circle><circle class="star" cx="591" cy="71" r="1.7" opacity="0.33"><animate attributeName="cy" values="-8;226" dur="9.5s" begin="-8.2s" repeatCount="indefinite"/></circle><circle class="star" cx="206" cy="93" r="0.9" opacity="0.42"><animate attributeName="cy" values="-8;226" dur="8.4s" begin="-4.5s" repeatCount="indefinite"/></circle><circle class="star" cx="859" cy="95" r="0.9" opacity="0.44"><animate attributeName="cy" values="-8;226" dur="8.1s" begin="-6.0s" repeatCount="indefinite"/></circle><circle class="star" cx="925" cy="68" r="0.9" opacity="0.7"><animate attributeName="cy" values="-8;226" dur="4.7s" begin="-4.6s" repeatCount="indefinite"/></circle><circle class="star" cx="129" cy="83" r="0.9" opacity="0.64"><animate attributeName="cy" values="-8;226" dur="5.4s" begin="-0.2s" repeatCount="indefinite"/></circle><circle class="star" cx="395" cy="158" r="0.9" opacity="0.63"><animate attributeName="cy" values="-8;226" dur="5.5s" begin="-1.2s" repeatCount="indefinite"/></circle><circle class="star" cx="407" cy="13" r="0.9" opacity="0.42"><animate attributeName="cy" values="-8;226" dur="8.4s" begin="-6.9s" repeatCount="indefinite"/></circle><circle class="star" cx="589" cy="90" r="0.9" opacity="0.39"><animate attributeName="cy" values="-8;226" dur="8.8s" begin="-5.9s" repeatCount="indefinite"/></circle><circle class="star" cx="445" cy="38" r="0.9" opacity="0.66"><animate attributeName="cy" values="-8;226" dur="5.1s" begin="-5.0s" repeatCount="indefinite"/></circle><circle class="star" cx="536" cy="136" r="0.9" opacity="0.48"><animate attributeName="cy" values="-8;226" dur="7.7s" begin="-7.0s" repeatCount="indefinite"/></circle><circle class="star" cx="981" cy="144" r="1.7" opacity="0.48"><animate attributeName="cy" values="-8;226" dur="7.6s" begin="-6.4s" repeatCount="indefinite"/></circle><circle class="star" cx="391" cy="83" r="1.7" opacity="0.3"><animate attributeName="cy" values="-8;226" dur="10.0s" begin="-3.9s" repeatCount="indefinite"/></circle><circle class="star" cx="975" cy="161" r="0.9" opacity="0.61"><animate attributeName="cy" values="-8;226" dur="5.9s" begin="-1.6s" repeatCount="indefinite"/></circle><circle class="star" cx="169" cy="131" r="0.9" opacity="0.3"><animate attributeName="cy" values="-8;226" dur="10.0s" begin="-5.1s" repeatCount="indefinite"/></circle><circle class="star" cx="542" cy="26" r="0.9" opacity="0.3"><animate attributeName="cy" values="-8;226" dur="10.0s" begin="-1.5s" repeatCount="indefinite"/></circle><circle class="star" cx="641" cy="67" r="0.9" opacity="0.57"><animate attributeName="cy" values="-8;226" dur="6.4s" begin="-3.9s" repeatCount="indefinite"/></circle><circle class="star" cx="532" cy="43" r="0.9" opacity="0.44"><animate attributeName="cy" values="-8;226" dur="8.2s" begin="-2.2s" repeatCount="indefinite"/></circle><circle class="star" cx="284" cy="108" r="0.9" opacity="0.53"><animate attributeName="cy" values="-8;226" dur="6.9s" begin="-2.0s" repeatCount="indefinite"/></circle><circle class="star" cx="963" cy="5" r="0.9" opacity="0.65"><animate attributeName="cy" values="-8;226" dur="5.3s" begin="-4.8s" repeatCount="indefinite"/></circle><circle class="star" cx="153" cy="150" r="0.9" opacity="0.72"><animate attributeName="cy" values="-8;226" dur="4.3s" begin="-0.5s" repeatCount="indefinite"/></circle><circle class="star" cx="921" cy="211" r="0.9" opacity="0.32"><animate attributeName="cy" values="-8;226" dur="9.7s" begin="-0.8s" repeatCount="indefinite"/></circle><circle class="star" cx="81" cy="173" r="0.9" opacity="0.62"><animate attributeName="cy" values="-8;226" dur="5.8s" begin="-3.7s" repeatCount="indefinite"/></circle><circle class="star" cx="512" cy="59" r="0.9" opacity="0.54"><animate attributeName="cy" values="-8;226" dur="6.7s" begin="-4.4s" repeatCount="indefinite"/></circle><circle class="star" cx="876" cy="43" r="0.9" opacity="0.62"><animate attributeName="cy" values="-8;226" dur="5.7s" begin="-0.4s" repeatCount="indefinite"/></circle><circle class="star" cx="820" cy="38" r="1.7" opacity="0.37"><animate attributeName="cy" values="-8;226" dur="9.0s" begin="-6.0s" repeatCount="indefinite"/></circle><circle class="star" cx="142" cy="213" r="0.9" opacity="0.27"><animate attributeName="cy" values="-8;226" dur="10.4s" begin="-7.9s" repeatCount="indefinite"/></circle><circle class="star" cx="569" cy="125" r="0.9" opacity="0.65"><animate attributeName="cy" values="-8;226" dur="5.3s" begin="-0.7s" repeatCount="indefinite"/></circle><circle class="star" cx="797" cy="77" r="0.9" opacity="0.55"><animate attributeName="cy" values="-8;226" dur="6.7s" begin="-6.0s" repeatCount="indefinite"/></circle><circle class="star" cx="414" cy="186" r="0.9" opacity="0.31"><animate attributeName="cy" values="-8;226" dur="9.9s" begin="-6.6s" repeatCount="indefinite"/></circle><circle class="star" cx="612" cy="181" r="0.9" opacity="0.37"><animate attributeName="cy" values="-8;226" dur="9.1s" begin="-7.2s" repeatCount="indefinite"/></circle><circle class="star" cx="143" cy="30" r="0.9" opacity="0.55"><animate attributeName="cy" values="-8;226" dur="6.7s" begin="-4.1s" repeatCount="indefinite"/></circle><circle class="star" cx="428" cy="110" r="0.9" opacity="0.66"><animate attributeName="cy" values="-8;226" dur="5.2s" begin="-2.8s" repeatCount="indefinite"/></circle><circle class="star" cx="593" cy="203" r="0.9" opacity="0.65"><animate attributeName="cy" values="-8;226" dur="5.3s" begin="-1.4s" repeatCount="indefinite"/></circle><circle class="star" cx="600" cy="179" r="0.9" opacity="0.61"><animate attributeName="cy" values="-8;226" dur="5.8s" begin="-5.3s" repeatCount="indefinite"/></circle><circle class="star" cx="128" cy="111" r="1.7" opacity="0.44"><animate attributeName="cy" values="-8;226" dur="8.1s" begin="-4.1s" repeatCount="indefinite"/></circle><circle class="star" cx="984" cy="167" r="0.9" opacity="0.32"><animate attributeName="cy" values="-8;226" dur="9.8s" begin="-3.6s" repeatCount="indefinite"/></circle><circle class="star" cx="885" cy="100" r="0.9" opacity="0.35"><animate attributeName="cy" values="-8;226" dur="9.4s" begin="-2.3s" repeatCount="indefinite"/></circle><circle class="star" cx="38" cy="129" r="0.9" opacity="0.75"><animate attributeName="cy" values="-8;226" dur="4.1s" begin="-3.0s" repeatCount="indefinite"/></circle><circle class="star" cx="153" cy="122" r="0.9" opacity="0.58"><animate attributeName="cy" values="-8;226" dur="6.3s" begin="-2.8s" repeatCount="indefinite"/></circle><circle class="star" cx="53" cy="202" r="0.9" opacity="0.4"><animate attributeName="cy" values="-8;226" dur="8.7s" begin="-4.0s" repeatCount="indefinite"/></circle><circle class="star" cx="779" cy="74" r="0.9" opacity="0.31"><animate attributeName="cy" values="-8;226" dur="9.8s" begin="-4.7s" repeatCount="indefinite"/></circle><circle class="star" cx="793" cy="88" r="0.9" opacity="0.59"><animate attributeName="cy" values="-8;226" dur="6.1s" begin="-4.5s" repeatCount="indefinite"/></circle><circle class="star" cx="174" cy="192" r="1.7" opacity="0.72"><animate attributeName="cy" values="-8;226" dur="4.4s" begin="-3.7s" repeatCount="indefinite"/></circle><circle class="star" cx="778" cy="151" r="0.9" opacity="0.32"><animate attributeName="cy" values="-8;226" dur="9.7s" begin="-7.5s" repeatCount="indefinite"/></circle><circle class="star" cx="626" cy="210" r="0.9" opacity="0.72"><animate attributeName="cy" values="-8;226" dur="4.3s" begin="-4.0s" repeatCount="indefinite"/></circle><circle class="star" cx="144" cy="65" r="0.9" opacity="0.52"><animate attributeName="cy" values="-8;226" dur="7.0s" begin="-6.7s" repeatCount="indefinite"/></circle><circle class="star" cx="636" cy="135" r="0.9" opacity="0.57"><animate attributeName="cy" values="-8;226" dur="6.4s" begin="-2.6s" repeatCount="indefinite"/></circle><circle class="star" cx="739" cy="131" r="0.9" opacity="0.46"><animate attributeName="cy" values="-8;226" dur="7.8s" begin="-1.2s" repeatCount="indefinite"/></circle>
<text class="code" x="120" y="50" font-size="13" opacity=".5">{}</text>
<text class="code" x="470" y="60" font-size="13" opacity=".5">&lt;/&gt;</text>
<text class="code" x="700" y="44" font-size="13" opacity=".5">∇</text>
<text class="code" x="905" y="70" font-size="13" opacity=".5">[]</text>
<text class="code" x="330" y="36" font-size="13" opacity=".5">fn</text>
<text class="code" x="560" y="30" font-size="13" opacity=".5">θ</text>
<g><animateTransform attributeName="transform" type="translate" values="0 0;-1000 0" dur="11.0s" repeatCount="indefinite"/><g><rect class="twr" x="40" y="0.0" width="60" height="35.0" rx="5"/><line class="mot-l" x1="37" y1="9" x2="42" y2="9" stroke-width="1.4"/><line class="mot-l" x1="98" y1="9" x2="103" y2="9" stroke-width="1.4"/><line class="mot-l" x1="37" y1="20" x2="42" y2="20" stroke-width="1.4"/><line class="mot-l" x1="98" y1="20" x2="103" y2="20" stroke-width="1.4"/><rect class="mot-l" x="58" y="7.0" width="24" height="21" rx="2" opacity=".5"/><rect class="led" x="65" y="14.5" width="10" height="6" rx="1"><animate attributeName="opacity" values="1;.3;1" dur="1.6s" repeatCount="indefinite"/></rect><rect class="cap" x="35" y="22.0" width="70" height="13" rx="3"/><text class="mlbl" x="70" y="18.0" text-anchor="middle" font-size="8.5" font-weight="700" letter-spacing=".3">GPU</text><rect class="twr" x="40" y="165.0" width="60" height="53.0" rx="5"/><line class="mot-l" x1="37" y1="174" x2="42" y2="174" stroke-width="1.4"/><line class="mot-l" x1="98" y1="174" x2="103" y2="174" stroke-width="1.4"/><line class="mot-l" x1="37" y1="185" x2="42" y2="185" stroke-width="1.4"/><line class="mot-l" x1="98" y1="185" x2="103" y2="185" stroke-width="1.4"/><line class="mot-l" x1="37" y1="196" x2="42" y2="196" stroke-width="1.4"/><line class="mot-l" x1="98" y1="196" x2="103" y2="196" stroke-width="1.4"/><line class="mot-l" x1="37" y1="207" x2="42" y2="207" stroke-width="1.4"/><line class="mot-l" x1="98" y1="207" x2="103" y2="207" stroke-width="1.4"/><rect class="mot-l" x="58" y="172.0" width="24" height="22" rx="2" opacity=".5"/><rect class="led" x="65" y="180.0" width="10" height="6" rx="1"><animate attributeName="opacity" values="1;.3;1" dur="1.6s" repeatCount="indefinite"/></rect><rect class="cap" x="35" y="165.0" width="70" height="13" rx="3"/><text class="mlbl" x="70" y="188.0" text-anchor="middle" font-size="8.5" font-weight="700" letter-spacing=".3">TPU</text><rect class="twr-l" opacity=".88" x="240" y="0.0" width="60" height="53.0" rx="5"/><line class="mot-d" x1="270" y1="7" x2="270" y2="46.0" stroke-width="1.2" opacity=".6"/><circle class="mot-d" cx="270" cy="12" r="3.2"><animate attributeName="r" values="3.2;4.6;3.2" dur="2s" begin="0.0s" repeatCount="indefinite"/></circle><circle class="mot-d" cx="270" cy="30" r="3.2"></circle><rect class="cap" x="235" y="40.0" width="70" height="13" rx="3"/><text class="mlbl" x="270" y="36.0" text-anchor="middle" font-size="8.5" font-weight="700" letter-spacing=".3">relu</text><rect class="twr-l" opacity=".88" x="240" y="183.0" width="60" height="35.0" rx="5"/><line class="mot-d" x1="270" y1="190.0" x2="270" y2="211" stroke-width="1.2" opacity=".6"/><circle class="mot-d" cx="270" cy="195" r="3.2"><animate attributeName="r" values="3.2;4.6;3.2" dur="2s" begin="0.0s" repeatCount="indefinite"/></circle><rect class="cap" x="235" y="183.0" width="70" height="13" rx="3"/><text class="mlbl" x="270" y="206.0" text-anchor="middle" font-size="8.5" font-weight="700" letter-spacing=".3">dense</text><rect class="twr-l" opacity=".88" x="440" y="0.0" width="60" height="33.0" rx="5"/><rect class="mot-d" x="450" y="8.0" width="30" height="7" rx="2" fill="none" stroke-width="1.3" opacity="0.60"/><rect class="mot-d" x="455" y="13.0" width="30" height="7" rx="2" fill="none" stroke-width="1.3" opacity="0.45"/><rect class="mot-d" x="460" y="18.0" width="30" height="7" rx="2" fill="none" stroke-width="1.3" opacity="0.30"/><rect class="cap" x="435" y="20.0" width="70" height="13" rx="3"/><text class="mlbl" x="470" y="16.0" text-anchor="middle" font-size="8.5" font-weight="700" letter-spacing=".3">tensor</text><rect class="twr-l" opacity=".88" x="440" y="163.0" width="60" height="55.0" rx="5"/><rect class="mot-d" x="450" y="169.0" width="30" height="28" rx="2" fill="none" stroke-width="1.3" opacity="0.60"/><rect class="mot-d" x="455" y="174.0" width="30" height="28" rx="2" fill="none" stroke-width="1.3" opacity="0.45"/><rect class="mot-d" x="460" y="179.0" width="30" height="28" rx="2" fill="none" stroke-width="1.3" opacity="0.30"/><rect class="cap" x="435" y="163.0" width="70" height="13" rx="3"/><text class="mlbl" x="470" y="186.0" text-anchor="middle" font-size="8.5" font-weight="700" letter-spacing=".3">tensor</text><rect class="twr" x="640" y="0.0" width="60" height="55.0" rx="5"/><rect class="mot-l" x="648" width="8" rx="1" opacity=".55" y="37" height="18"><animate attributeName="height" values="18;27;22;18" dur="2.4s" begin="0.0s" repeatCount="indefinite"/><animate attributeName="y" values="37;28;33;37" dur="2.4s" begin="0.0s" repeatCount="indefinite"/></rect><rect class="mot-l" x="660" width="8" rx="1" opacity=".55" y="37" height="18"><animate attributeName="height" values="18;33;22;18" dur="2.4s" begin="0.3s" repeatCount="indefinite"/><animate attributeName="y" values="37;22;33;37" dur="2.4s" begin="0.3s" repeatCount="indefinite"/></rect><rect class="mot-l" x="672" width="8" rx="1" opacity=".55" y="37" height="18"><animate attributeName="height" values="18;39;22;18" dur="2.4s" begin="0.6s" repeatCount="indefinite"/><animate attributeName="y" values="37;16;33;37" dur="2.4s" begin="0.6s" repeatCount="indefinite"/></rect><rect class="mot-l" x="684" width="8" rx="1" opacity=".55" y="37" height="18"><animate attributeName="height" values="18;27;22;18" dur="2.4s" begin="0.9s" repeatCount="indefinite"/><animate attributeName="y" values="37;28;33;37" dur="2.4s" begin="0.9s" repeatCount="indefinite"/></rect><rect class="cap" x="635" y="42.0" width="70" height="13" rx="3"/><text class="mlbl" x="670" y="38.0" text-anchor="middle" font-size="8.5" font-weight="700" letter-spacing=".3">data</text><rect class="twr" x="640" y="185.0" width="60" height="33.0" rx="5"/><rect class="mot-l" x="648" y="185" width="8" rx="1" opacity=".55" height="8"><animate attributeName="height" values="8;12;10;8" dur="2.4s" begin="0.0s" repeatCount="indefinite"/></rect><rect class="mot-l" x="660" y="185" width="8" rx="1" opacity=".55" height="8"><animate attributeName="height" values="8;14;10;8" dur="2.4s" begin="0.3s" repeatCount="indefinite"/></rect><rect class="mot-l" x="672" y="185" width="8" rx="1" opacity=".55" height="8"><animate attributeName="height" values="8;17;10;8" dur="2.4s" begin="0.6s" repeatCount="indefinite"/></rect><rect class="mot-l" x="684" y="185" width="8" rx="1" opacity=".55" height="8"><animate attributeName="height" values="8;12;10;8" dur="2.4s" begin="0.9s" repeatCount="indefinite"/></rect><rect class="cap" x="635" y="185.0" width="70" height="13" rx="3"/><text class="mlbl" x="670" y="208.0" text-anchor="middle" font-size="8.5" font-weight="700" letter-spacing=".3">data</text><rect class="twr-l" opacity=".88" x="840" y="0.0" width="60" height="43.0" rx="5"/><rect class="mot-d" x="847" y="7" width="7" height="7" rx="1" opacity=".6"/><rect class="mot-d" x="857" y="7" width="7" height="7" rx="1" opacity=".16"/><rect class="mot-d" x="867" y="7" width="7" height="7" rx="1" opacity=".6"/><rect class="mot-d" x="877" y="7" width="7" height="7" rx="1" opacity=".16"/><rect class="mot-d" x="887" y="7" width="7" height="7" rx="1" opacity=".6"/><rect class="mot-d" x="847" y="17" width="7" height="7" rx="1" opacity=".16"/><rect class="mot-d" x="857" y="17" width="7" height="7" rx="1" opacity=".6"/><rect class="mot-d" x="867" y="17" width="7" height="7" rx="1" opacity=".16"/><rect class="mot-d" x="877" y="17" width="7" height="7" rx="1" opacity=".6"/><rect class="mot-d" x="887" y="17" width="7" height="7" rx="1" opacity=".16"/><rect class="mot-d" x="847" y="27" width="7" height="7" rx="1" opacity=".6"/><rect class="mot-d" x="857" y="27" width="7" height="7" rx="1" opacity=".16"/><rect class="mot-d" x="867" y="27" width="7" height="7" rx="1" opacity=".6"/><rect class="mot-d" x="877" y="27" width="7" height="7" rx="1" opacity=".16"/><rect class="mot-d" x="887" y="27" width="7" height="7" rx="1" opacity=".6"/><rect class="cap" x="835" y="30.0" width="70" height="13" rx="3"/><text class="mlbl" x="870" y="26.0" text-anchor="middle" font-size="8.5" font-weight="700" letter-spacing=".3">W·x</text><rect class="twr-l" opacity=".88" x="840" y="173.0" width="60" height="45.0" rx="5"/><rect class="mot-d" x="847" y="180" width="7" height="7" rx="1" opacity=".16"/><rect class="mot-d" x="857" y="180" width="7" height="7" rx="1" opacity=".6"/><rect class="mot-d" x="867" y="180" width="7" height="7" rx="1" opacity=".16"/><rect class="mot-d" x="877" y="180" width="7" height="7" rx="1" opacity=".6"/><rect class="mot-d" x="887" y="180" width="7" height="7" rx="1" opacity=".16"/><rect class="mot-d" x="847" y="190" width="7" height="7" rx="1" opacity=".6"/><rect class="mot-d" x="857" y="190" width="7" height="7" rx="1" opacity=".16"/><rect class="mot-d" x="867" y="190" width="7" height="7" rx="1" opacity=".6"/><rect class="mot-d" x="877" y="190" width="7" height="7" rx="1" opacity=".16"/><rect class="mot-d" x="887" y="190" width="7" height="7" rx="1" opacity=".6"/><rect class="mot-d" x="847" y="200" width="7" height="7" rx="1" opacity=".16"/><rect class="mot-d" x="857" y="200" width="7" height="7" rx="1" opacity=".6"/><rect class="mot-d" x="867" y="200" width="7" height="7" rx="1" opacity=".16"/><rect class="mot-d" x="877" y="200" width="7" height="7" rx="1" opacity=".6"/><rect class="mot-d" x="887" y="200" width="7" height="7" rx="1" opacity=".16"/><rect class="mot-d" x="847" y="210" width="7" height="7" rx="1" opacity=".6"/><rect class="mot-d" x="857" y="210" width="7" height="7" rx="1" opacity=".16"/><rect class="mot-d" x="867" y="210" width="7" height="7" rx="1" opacity=".6"/><rect class="mot-d" x="877" y="210" width="7" height="7" rx="1" opacity=".16"/><rect class="mot-d" x="887" y="210" width="7" height="7" rx="1" opacity=".6"/><rect class="cap" x="835" y="173.0" width="70" height="13" rx="3"/><text class="mlbl" x="870" y="196.0" text-anchor="middle" font-size="8.5" font-weight="700" letter-spacing=".3">W·x</text></g><g transform="translate(1000,0)"><rect class="twr" x="40" y="0.0" width="60" height="35.0" rx="5"/><line class="mot-l" x1="37" y1="9" x2="42" y2="9" stroke-width="1.4"/><line class="mot-l" x1="98" y1="9" x2="103" y2="9" stroke-width="1.4"/><line class="mot-l" x1="37" y1="20" x2="42" y2="20" stroke-width="1.4"/><line class="mot-l" x1="98" y1="20" x2="103" y2="20" stroke-width="1.4"/><rect class="mot-l" x="58" y="7.0" width="24" height="21" rx="2" opacity=".5"/><rect class="led" x="65" y="14.5" width="10" height="6" rx="1"><animate attributeName="opacity" values="1;.3;1" dur="1.6s" repeatCount="indefinite"/></rect><rect class="cap" x="35" y="22.0" width="70" height="13" rx="3"/><text class="mlbl" x="70" y="18.0" text-anchor="middle" font-size="8.5" font-weight="700" letter-spacing=".3">GPU</text><rect class="twr" x="40" y="165.0" width="60" height="53.0" rx="5"/><line class="mot-l" x1="37" y1="174" x2="42" y2="174" stroke-width="1.4"/><line class="mot-l" x1="98" y1="174" x2="103" y2="174" stroke-width="1.4"/><line class="mot-l" x1="37" y1="185" x2="42" y2="185" stroke-width="1.4"/><line class="mot-l" x1="98" y1="185" x2="103" y2="185" stroke-width="1.4"/><line class="mot-l" x1="37" y1="196" x2="42" y2="196" stroke-width="1.4"/><line class="mot-l" x1="98" y1="196" x2="103" y2="196" stroke-width="1.4"/><line class="mot-l" x1="37" y1="207" x2="42" y2="207" stroke-width="1.4"/><line class="mot-l" x1="98" y1="207" x2="103" y2="207" stroke-width="1.4"/><rect class="mot-l" x="58" y="172.0" width="24" height="22" rx="2" opacity=".5"/><rect class="led" x="65" y="180.0" width="10" height="6" rx="1"><animate attributeName="opacity" values="1;.3;1" dur="1.6s" repeatCount="indefinite"/></rect><rect class="cap" x="35" y="165.0" width="70" height="13" rx="3"/><text class="mlbl" x="70" y="188.0" text-anchor="middle" font-size="8.5" font-weight="700" letter-spacing=".3">TPU</text><rect class="twr-l" opacity=".88" x="240" y="0.0" width="60" height="53.0" rx="5"/><line class="mot-d" x1="270" y1="7" x2="270" y2="46.0" stroke-width="1.2" opacity=".6"/><circle class="mot-d" cx="270" cy="12" r="3.2"><animate attributeName="r" values="3.2;4.6;3.2" dur="2s" begin="0.0s" repeatCount="indefinite"/></circle><circle class="mot-d" cx="270" cy="30" r="3.2"></circle><rect class="cap" x="235" y="40.0" width="70" height="13" rx="3"/><text class="mlbl" x="270" y="36.0" text-anchor="middle" font-size="8.5" font-weight="700" letter-spacing=".3">relu</text><rect class="twr-l" opacity=".88" x="240" y="183.0" width="60" height="35.0" rx="5"/><line class="mot-d" x1="270" y1="190.0" x2="270" y2="211" stroke-width="1.2" opacity=".6"/><circle class="mot-d" cx="270" cy="195" r="3.2"><animate attributeName="r" values="3.2;4.6;3.2" dur="2s" begin="0.0s" repeatCount="indefinite"/></circle><rect class="cap" x="235" y="183.0" width="70" height="13" rx="3"/><text class="mlbl" x="270" y="206.0" text-anchor="middle" font-size="8.5" font-weight="700" letter-spacing=".3">dense</text><rect class="twr-l" opacity=".88" x="440" y="0.0" width="60" height="33.0" rx="5"/><rect class="mot-d" x="450" y="8.0" width="30" height="7" rx="2" fill="none" stroke-width="1.3" opacity="0.60"/><rect class="mot-d" x="455" y="13.0" width="30" height="7" rx="2" fill="none" stroke-width="1.3" opacity="0.45"/><rect class="mot-d" x="460" y="18.0" width="30" height="7" rx="2" fill="none" stroke-width="1.3" opacity="0.30"/><rect class="cap" x="435" y="20.0" width="70" height="13" rx="3"/><text class="mlbl" x="470" y="16.0" text-anchor="middle" font-size="8.5" font-weight="700" letter-spacing=".3">tensor</text><rect class="twr-l" opacity=".88" x="440" y="163.0" width="60" height="55.0" rx="5"/><rect class="mot-d" x="450" y="169.0" width="30" height="28" rx="2" fill="none" stroke-width="1.3" opacity="0.60"/><rect class="mot-d" x="455" y="174.0" width="30" height="28" rx="2" fill="none" stroke-width="1.3" opacity="0.45"/><rect class="mot-d" x="460" y="179.0" width="30" height="28" rx="2" fill="none" stroke-width="1.3" opacity="0.30"/><rect class="cap" x="435" y="163.0" width="70" height="13" rx="3"/><text class="mlbl" x="470" y="186.0" text-anchor="middle" font-size="8.5" font-weight="700" letter-spacing=".3">tensor</text><rect class="twr" x="640" y="0.0" width="60" height="55.0" rx="5"/><rect class="mot-l" x="648" width="8" rx="1" opacity=".55" y="37" height="18"><animate attributeName="height" values="18;27;22;18" dur="2.4s" begin="0.0s" repeatCount="indefinite"/><animate attributeName="y" values="37;28;33;37" dur="2.4s" begin="0.0s" repeatCount="indefinite"/></rect><rect class="mot-l" x="660" width="8" rx="1" opacity=".55" y="37" height="18"><animate attributeName="height" values="18;33;22;18" dur="2.4s" begin="0.3s" repeatCount="indefinite"/><animate attributeName="y" values="37;22;33;37" dur="2.4s" begin="0.3s" repeatCount="indefinite"/></rect><rect class="mot-l" x="672" width="8" rx="1" opacity=".55" y="37" height="18"><animate attributeName="height" values="18;39;22;18" dur="2.4s" begin="0.6s" repeatCount="indefinite"/><animate attributeName="y" values="37;16;33;37" dur="2.4s" begin="0.6s" repeatCount="indefinite"/></rect><rect class="mot-l" x="684" width="8" rx="1" opacity=".55" y="37" height="18"><animate attributeName="height" values="18;27;22;18" dur="2.4s" begin="0.9s" repeatCount="indefinite"/><animate attributeName="y" values="37;28;33;37" dur="2.4s" begin="0.9s" repeatCount="indefinite"/></rect><rect class="cap" x="635" y="42.0" width="70" height="13" rx="3"/><text class="mlbl" x="670" y="38.0" text-anchor="middle" font-size="8.5" font-weight="700" letter-spacing=".3">data</text><rect class="twr" x="640" y="185.0" width="60" height="33.0" rx="5"/><rect class="mot-l" x="648" y="185" width="8" rx="1" opacity=".55" height="8"><animate attributeName="height" values="8;12;10;8" dur="2.4s" begin="0.0s" repeatCount="indefinite"/></rect><rect class="mot-l" x="660" y="185" width="8" rx="1" opacity=".55" height="8"><animate attributeName="height" values="8;14;10;8" dur="2.4s" begin="0.3s" repeatCount="indefinite"/></rect><rect class="mot-l" x="672" y="185" width="8" rx="1" opacity=".55" height="8"><animate attributeName="height" values="8;17;10;8" dur="2.4s" begin="0.6s" repeatCount="indefinite"/></rect><rect class="mot-l" x="684" y="185" width="8" rx="1" opacity=".55" height="8"><animate attributeName="height" values="8;12;10;8" dur="2.4s" begin="0.9s" repeatCount="indefinite"/></rect><rect class="cap" x="635" y="185.0" width="70" height="13" rx="3"/><text class="mlbl" x="670" y="208.0" text-anchor="middle" font-size="8.5" font-weight="700" letter-spacing=".3">data</text><rect class="twr-l" opacity=".88" x="840" y="0.0" width="60" height="43.0" rx="5"/><rect class="mot-d" x="847" y="7" width="7" height="7" rx="1" opacity=".6"/><rect class="mot-d" x="857" y="7" width="7" height="7" rx="1" opacity=".16"/><rect class="mot-d" x="867" y="7" width="7" height="7" rx="1" opacity=".6"/><rect class="mot-d" x="877" y="7" width="7" height="7" rx="1" opacity=".16"/><rect class="mot-d" x="887" y="7" width="7" height="7" rx="1" opacity=".6"/><rect class="mot-d" x="847" y="17" width="7" height="7" rx="1" opacity=".16"/><rect class="mot-d" x="857" y="17" width="7" height="7" rx="1" opacity=".6"/><rect class="mot-d" x="867" y="17" width="7" height="7" rx="1" opacity=".16"/><rect class="mot-d" x="877" y="17" width="7" height="7" rx="1" opacity=".6"/><rect class="mot-d" x="887" y="17" width="7" height="7" rx="1" opacity=".16"/><rect class="mot-d" x="847" y="27" width="7" height="7" rx="1" opacity=".6"/><rect class="mot-d" x="857" y="27" width="7" height="7" rx="1" opacity=".16"/><rect class="mot-d" x="867" y="27" width="7" height="7" rx="1" opacity=".6"/><rect class="mot-d" x="877" y="27" width="7" height="7" rx="1" opacity=".16"/><rect class="mot-d" x="887" y="27" width="7" height="7" rx="1" opacity=".6"/><rect class="cap" x="835" y="30.0" width="70" height="13" rx="3"/><text class="mlbl" x="870" y="26.0" text-anchor="middle" font-size="8.5" font-weight="700" letter-spacing=".3">W·x</text><rect class="twr-l" opacity=".88" x="840" y="173.0" width="60" height="45.0" rx="5"/><rect class="mot-d" x="847" y="180" width="7" height="7" rx="1" opacity=".16"/><rect class="mot-d" x="857" y="180" width="7" height="7" rx="1" opacity=".6"/><rect class="mot-d" x="867" y="180" width="7" height="7" rx="1" opacity=".16"/><rect class="mot-d" x="877" y="180" width="7" height="7" rx="1" opacity=".6"/><rect class="mot-d" x="887" y="180" width="7" height="7" rx="1" opacity=".16"/><rect class="mot-d" x="847" y="190" width="7" height="7" rx="1" opacity=".6"/><rect class="mot-d" x="857" y="190" width="7" height="7" rx="1" opacity=".16"/><rect class="mot-d" x="867" y="190" width="7" height="7" rx="1" opacity=".6"/><rect class="mot-d" x="877" y="190" width="7" height="7" rx="1" opacity=".16"/><rect class="mot-d" x="887" y="190" width="7" height="7" rx="1" opacity=".6"/><rect class="mot-d" x="847" y="200" width="7" height="7" rx="1" opacity=".16"/><rect class="mot-d" x="857" y="200" width="7" height="7" rx="1" opacity=".6"/><rect class="mot-d" x="867" y="200" width="7" height="7" rx="1" opacity=".16"/><rect class="mot-d" x="877" y="200" width="7" height="7" rx="1" opacity=".6"/><rect class="mot-d" x="887" y="200" width="7" height="7" rx="1" opacity=".16"/><rect class="mot-d" x="847" y="210" width="7" height="7" rx="1" opacity=".6"/><rect class="mot-d" x="857" y="210" width="7" height="7" rx="1" opacity=".16"/><rect class="mot-d" x="867" y="210" width="7" height="7" rx="1" opacity=".6"/><rect class="mot-d" x="877" y="210" width="7" height="7" rx="1" opacity=".16"/><rect class="mot-d" x="887" y="210" width="7" height="7" rx="1" opacity=".6"/><rect class="cap" x="835" y="173.0" width="70" height="13" rx="3"/><text class="mlbl" x="870" y="196.0" text-anchor="middle" font-size="8.5" font-weight="700" letter-spacing=".3">W·x</text></g></g>
<rect class="gnd" x="0" y="218" width="1000" height="22"/>
<text class="hud" x="10" y="233" font-size="11" opacity=".7">&gt;_ run --game flappy</text>
<rect class="cap" x="-120" y="218" width="120" height="2" opacity=".5"><animate attributeName="x" values="-120;1000" dur="3.5s" repeatCount="indefinite"/></rect>
<g transform="translate(200,118)"><g><animateTransform attributeName="transform" type="translate" values="0 15;0 -15;0 15" keyTimes="0;0.3;1" calcMode="spline" keySplines="0.1 0.75 0.3 1;0.5 0 0.85 0.55" dur="1.5s" repeatCount="indefinite"/><g><animateTransform attributeName="transform" type="rotate" values="-16;14;-16" keyTimes="0;0.3;1" calcMode="spline" keySplines="0.1 0.75 0.3 1;0.5 0 0.85 0.55" dur="1.5s" repeatCount="indefinite"/><path class="tail" d="M-13 0 L-23 -7 L-20 0 L-23 7 Z"/><ellipse class="bird" cx="0" cy="0" rx="16" ry="13"/><ellipse class="belly" cx="-1" cy="5" rx="10" ry="7" opacity=".55"/><g class="wing"><path class="wing" d="M-3 -2 q-13 -3 -17 6 q9 4 17 -2 Z"/><animateTransform attributeName="transform" type="rotate" values="-38 -3 -3;26 -3 -3;-38 -3 -3" dur="0.34s" repeatCount="indefinite"/></g><circle class="eye" cx="8" cy="-5" r="4.2"/><circle class="pupil" cx="9.3" cy="-5" r="1.9"/><path class="beak" d="M15 -5 L23 0 L15 5"/></g></g></g>
<text class="sig" style="opacity:.5" x="986" y="232" text-anchor="end" font-size="11" letter-spacing="0.5">@atikulmunna</text>
</svg>