<svg xmlns="http://www.w3.org/2000/svg" viewBox="0 0 1000 240" width="100%" font-family="ui-monospace, 'SF Mono', SFMono-Regular, Menlo, Consolas, 'Liberation Mono', monospace" role="img" aria-label="Training loss curve by @atikulmunna">
<!-- Source & credit: github.com/atikulmunna — do not reuse without attribution. --><metadata>Created by @atikulmunna (github.com/atikulmunna). All rights reserved.</metadata><title>@atikulmunna</title>
<style>
  .grid  { stroke:#6d28d9; opacity:.12; }
  .axis  { stroke:#6d28d9; opacity:.4; }
  .curve { stroke:#7c3aed; fill:none; stroke-width:2.4; stroke-linecap:round;
           stroke-linejoin:round; }
  .dot   { fill:#7c3aed; }
  .glow  { fill:#a78bfa; }
  .lbl   { fill:#6d28d9; font-weight:700; letter-spacing:1px; }
  .live  { fill:#7c3aed; }
  .sig   { fill:#7c3aed; }
  @media (prefers-color-scheme: dark) {
    .grid  { stroke:#a78bfa; opacity:.12; }
    .axis  { stroke:#a78bfa; opacity:.45; }
    .curve { stroke:#c4b5fd; }
    .dot   { fill:#e9e2ff; }
    .glow  { fill:#a78bfa; }
    .lbl   { fill:#c4b5fd; }
    .live  { fill:#a78bfa; }
    .sig   { fill:#a78bfa; }
  }
</style>
<line class="grid" x1="120" y1="48" x2="120" y2="188"/>
<line class="grid" x1="315" y1="48" x2="315" y2="188"/>
<line class="grid" x1="510" y1="48" x2="510" y2="188"/>
<line class="grid" x1="705" y1="48" x2="705" y2="188"/>
<line class="grid" x1="900" y1="48" x2="900" y2="188"/>
<line class="grid" x1="120" y1="48" x2="900" y2="48"/>
<line class="grid" x1="120" y1="95" x2="900" y2="95"/>
<line class="grid" x1="120" y1="141" x2="900" y2="141"/>
<line class="grid" x1="120" y1="188" x2="900" y2="188"/>
<line class="axis" x1="120" y1="48" x2="120" y2="188"/>
<line class="axis" x1="120" y1="188" x2="900" y2="188"/>
<text class="lbl" x="112" y="52" font-size="11" text-anchor="end">loss</text>
<text class="lbl" x="900" y="206" font-size="11" text-anchor="end">epoch</text>
<circle class="live" cx="124" cy="32" r="3.4"><animate attributeName="opacity" values="1;.15;1" dur="1.1s" repeatCount="indefinite"/></circle>
<text class="lbl" x="134" y="32" font-size="11" dominant-baseline="central">training</text>
<path id="loss" class="curve" d="M120.0 49.8 L132.2 57.8 L144.4 62.4 L156.6 70.3 L168.8 76.9 L180.9 80.4 L193.1 82.6 L205.3 88.6 L217.5 93.7 L229.7 101.6 L241.9 104.2 L254.1 109.9 L266.2 114.4 L278.4 118.5 L290.6 121.5 L302.8 121.1 L315.0 124.9 L327.2 128.2 L339.4 131.2 L351.6 136.9 L363.8 139.0 L375.9 140.0 L388.1 141.9 L400.3 143.6 L412.5 145.7 L424.7 151.2 L436.9 150.9 L449.1 152.5 L461.2 154.9 L473.4 157.9 L485.6 158.3 L497.8 161.3 L510.0 159.4 L522.2 161.1 L534.4 163.6 L546.6 165.7 L558.8 164.7 L570.9 167.0 L583.1 167.0 L595.3 168.1 L607.5 170.2 L619.7 171.4 L631.9 171.6 L644.1 173.0 L656.2 174.6 L668.4 174.8 L680.6 174.0 L692.8 176.9 L705.0 177.5 L717.2 176.5 L729.4 178.0 L741.6 177.8 L753.8 178.5 L765.9 179.3 L778.1 178.1 L790.3 180.5 L802.5 180.4 L814.7 181.3 L826.9 180.7 L839.1 181.8 L851.2 182.0 L863.4 181.4 L875.6 182.7 L887.8 182.4 L900.0 182.0" stroke-dasharray="804" stroke-dashoffset="0"><animate attributeName="stroke-dashoffset" values="804;0;0" keyTimes="0;0.72;1" dur="5.0s" repeatCount="indefinite"/></path>
<circle class="glow" r="7.5" opacity="0.35"><animateMotion dur="5.0s" repeatCount="indefinite" calcMode="linear" keyPoints="0;1;1" keyTimes="0;0.72;1" rotate="0"><mpath href="#loss"/></animateMotion></circle>
<circle class="dot" r="3.6" opacity="1"><animateMotion dur="5.0s" repeatCount="indefinite" calcMode="linear" keyPoints="0;1;1" keyTimes="0;0.72;1" rotate="0"><mpath href="#loss"/></animateMotion></circle>
<text class="sig" style="opacity:.5" x="986" y="230" text-anchor="end" font-size="11" letter-spacing="0.5">@atikulmunna</text>
</svg>