<svg xmlns="http://www.w3.org/2000/svg" viewBox="0 0 240 62" width="100%" font-family="ui-monospace, 'SF Mono', SFMono-Regular, Menlo, Consolas, 'Liberation Mono', monospace" role="img" aria-label="linkedin"><!-- @atikulmunna --><metadata>@atikulmunna</metadata><title>@atikulmunna · linkedin</title><style>.pill{fill:#050507}.ic{fill:#c4b5fd}.tx{fill:#c4b5fd;font-weight:700}.star{fill:#7c3aed}@media(prefers-color-scheme:dark){.pill{fill:#1c1730}.star{fill:#a78bfa}}</style><clipPath id="pc"><rect x="62" y="13" width="116" height="36" rx="8"/></clipPath><circle class="star" cx="25" cy="30" r="0.9" opacity="0.36"><animate attributeName="cy" values="-8;70" dur="9.4s" begin="-9.3s" repeatCount="indefinite"/></circle><circle class="star" cx="34" cy="29" r="1.7" opacity="0.71"><animate attributeName="cy" values="-8;70" dur="4.7s" begin="-1.0s" repeatCount="indefinite"/></circle><circle class="star" cx="90" cy="3" r="0.9" opacity="0.41"><animate attributeName="cy" values="-8;70" dur="8.6s" begin="-3.7s" repeatCount="indefinite"/></circle><circle class="star" cx="187" cy="8" r="0.9" opacity="0.46"><animate attributeName="cy" values="-8;70" dur="8.0s" begin="-5.4s" repeatCount="indefinite"/></circle><circle class="star" cx="186" cy="21" r="0.9" opacity="0.44"><animate attributeName="cy" values="-8;70" dur="8.3s" begin="-3.1s" repeatCount="indefinite"/></circle><circle class="star" cx="146" cy="51" r="1.7" opacity="0.43"><animate attributeName="cy" values="-8;70" dur="8.4s" begin="-1.5s" repeatCount="indefinite"/></circle><circle class="star" cx="75" cy="55" r="0.9" opacity="0.29"><animate attributeName="cy" values="-8;70" dur="10.3s" begin="-2.1s" repeatCount="indefinite"/></circle><circle class="star" cx="21" cy="36" r="1.7" opacity="0.74"><animate attributeName="cy" values="-8;70" dur="4.3s" begin="-1.6s" repeatCount="indefinite"/></circle><circle class="star" cx="71" cy="14" r="0.9" opacity="0.4"><animate attributeName="cy" values="-8;70" dur="8.8s" begin="-0.8s" repeatCount="indefinite"/></circle><circle class="star" cx="161" cy="36" r="0.9" opacity="0.49"><animate attributeName="cy" values="-8;70" dur="7.6s" begin="-0.7s" repeatCount="indefinite"/></circle><circle class="star" cx="138" cy="17" r="0.9" opacity="0.31"><animate attributeName="cy" values="-8;70" dur="10.0s" begin="-6.4s" repeatCount="indefinite"/></circle><circle class="star" cx="191" cy="37" r="1.7" opacity="0.72"><animate attributeName="cy" values="-8;70" dur="4.5s" begin="-4.4s" repeatCount="indefinite"/></circle><circle class="star" cx="216" cy="43" r="1.7" opacity="0.53"><animate attributeName="cy" values="-8;70" dur="7.1s" begin="-2.3s" repeatCount="indefinite"/></circle><circle class="star" cx="211" cy="25" r="0.9" opacity="0.46"><animate attributeName="cy" values="-8;70" dur="8.0s" begin="-4.7s" repeatCount="indefinite"/></circle><circle class="star" cx="44" cy="42" r="1.7" opacity="0.76"><animate attributeName="cy" values="-8;70" dur="4.1s" begin="-2.5s" repeatCount="indefinite"/></circle><circle class="star" cx="86" cy="23" r="0.9" opacity="0.51"><animate attributeName="cy" values="-8;70" dur="7.4s" begin="-4.8s" repeatCount="indefinite"/></circle><circle class="star" cx="193" cy="33" r="0.9" opacity="0.71"><animate attributeName="cy" values="-8;70" dur="4.6s" begin="-0.9s" repeatCount="indefinite"/></circle><circle class="star" cx="11" cy="19" r="0.9" opacity="0.52"><animate attributeName="cy" values="-8;70" dur="7.2s" begin="-6.5s" repeatCount="indefinite"/></circle><circle class="star" cx="227" cy="42" r="1.7" opacity="0.47"><animate attributeName="cy" values="-8;70" dur="7.9s" begin="-5.4s" repeatCount="indefinite"/></circle><circle class="star" cx="139" cy="5" r="0.9" opacity="0.43"><animate attributeName="cy" values="-8;70" dur="8.3s" begin="-2.1s" repeatCount="indefinite"/></circle><circle class="star" cx="7" cy="25" r="1.7" opacity="0.73"><animate attributeName="cy" values="-8;70" dur="4.4s" begin="-4.0s" repeatCount="indefinite"/></circle><circle class="star" cx="44" cy="38" r="0.9" opacity="0.55"><animate attributeName="cy" values="-8;70" dur="6.8s" begin="-2.5s" repeatCount="indefinite"/></circle><circle class="star" cx="20" cy="24" r="1.7" opacity="0.31"><animate attributeName="cy" values="-8;70" dur="10.0s" begin="-9.3s" repeatCount="indefinite"/></circle><circle class="star" cx="22" cy="2" r="0.9" opacity="0.56"><animate attributeName="cy" values="-8;70" dur="6.6s" begin="-2.0s" repeatCount="indefinite"/></circle><circle class="star" cx="183" cy="55" r="1.7" opacity="0.46"><animate attributeName="cy" values="-8;70" dur="7.9s" begin="-3.9s" repeatCount="indefinite"/></circle><circle class="star" cx="162" cy="11" r="1.7" opacity="0.57"><animate attributeName="cy" values="-8;70" dur="6.5s" begin="-4.2s" repeatCount="indefinite"/></circle><circle class="star" cx="108" cy="8" r="0.9" opacity="0.52"><animate attributeName="cy" values="-8;70" dur="7.2s" begin="-4.3s" repeatCount="indefinite"/></circle><circle class="star" cx="189" cy="29" r="0.9" opacity="0.34"><animate attributeName="cy" values="-8;70" dur="9.6s" begin="-7.6s" repeatCount="indefinite"/></circle><circle class="star" cx="11" cy="49" r="0.9" opacity="0.32"><animate attributeName="cy" values="-8;70" dur="9.9s" begin="-4.2s" repeatCount="indefinite"/></circle><circle class="star" cx="118" cy="57" r="0.9" opacity="0.69"><animate attributeName="cy" values="-8;70" dur="5.0s" begin="-1.7s" repeatCount="indefinite"/></circle><circle class="star" cx="110" cy="44" r="0.9" opacity="0.39"><animate attributeName="cy" values="-8;70" dur="8.9s" begin="-8.7s" repeatCount="indefinite"/></circle><circle class="star" cx="188" cy="12" r="0.9" opacity="0.47"><animate attributeName="cy" values="-8;70" dur="7.9s" begin="-2.6s" repeatCount="indefinite"/></circle><circle class="star" cx="152" cy="15" r="0.9" opacity="0.64"><animate attributeName="cy" values="-8;70" dur="5.5s" begin="-5.5s" repeatCount="indefinite"/></circle><circle class="star" cx="14" cy="55" r="0.9" opacity="0.36"><animate attributeName="cy" values="-8;70" dur="9.3s" begin="-9.2s" repeatCount="indefinite"/></circle><rect class="pill" x="62" y="13" width="116" height="36" rx="8"/><g clip-path="url(#pc)"><circle class="star" cx="113" cy="38" r="1.26" opacity="0.32"><animate attributeName="cy" values="5;57" dur="5.3s" begin="-1.2s" repeatCount="indefinite"/></circle><circle class="star" cx="168" cy="30" r="1.26" opacity="0.27"><animate attributeName="cy" values="5;57" dur="6.7s" begin="-2.6s" repeatCount="indefinite"/></circle><circle class="star" cx="112" cy="30" r="1.26" opacity="0.16"><animate attributeName="cy" values="5;57" dur="10.3s" begin="-5.9s" repeatCount="indefinite"/></circle><circle class="star" cx="139" cy="16" r="1.26" opacity="0.29"><animate attributeName="cy" values="5;57" dur="6.1s" begin="-0.9s" repeatCount="indefinite"/></circle><circle class="star" cx="120" cy="14" r="1.26" opacity="0.32"><animate attributeName="cy" values="5;57" dur="5.3s" begin="-4.6s" repeatCount="indefinite"/></circle><circle class="star" cx="113" cy="19" r="2.38" opacity="0.35"><animate attributeName="cy" values="5;57" dur="4.3s" begin="-1.4s" repeatCount="indefinite"/></circle><circle class="star" cx="173" cy="42" r="1.26" opacity="0.21"><animate attributeName="cy" values="5;57" dur="8.7s" begin="-2.0s" repeatCount="indefinite"/></circle><circle class="star" cx="177" cy="33" r="1.26" opacity="0.19"><animate attributeName="cy" values="5;57" dur="9.4s" begin="-1.2s" repeatCount="indefinite"/></circle><circle class="star" cx="63" cy="46" r="1.26" opacity="0.21"><animate attributeName="cy" values="5;57" dur="8.5s" begin="-6.1s" repeatCount="indefinite"/></circle><circle class="star" cx="175" cy="38" r="2.38" opacity="0.23"><animate attributeName="cy" values="5;57" dur="8.0s" begin="-5.5s" repeatCount="indefinite"/></circle><circle class="star" cx="91" cy="33" r="1.26" opacity="0.2"><animate attributeName="cy" values="5;57" dur="8.9s" begin="-2.2s" repeatCount="indefinite"/></circle></g><g transform="translate(75,24) scale(0.6250)"><path class="ic" d="M20.447 20.452h-3.554v-5.569c0-1.328-.027-3.037-1.852-3.037-1.853 0-2.136 1.445-2.136 2.939v5.667H9.351V9h3.414v1.561h.046c.477-.9 1.637-1.85 3.37-1.85 3.601 0 4.267 2.37 4.267 5.455v6.286zM5.337 7.433a2.062 2.062 0 01-2.063-2.065 2.064 2.064 0 112.063 2.065zm1.782 13.019H3.555V9h3.564v11.452zM22.225 0H1.771C.792 0 0 .774 0 1.729v20.542C0 23.227.792 24 1.771 24h20.451C23.2 24 24 23.227 24 22.271V1.729C24 .774 23.2 0 22.222 0h.003z"/></g><text class="tx" x="99" y="31" font-size="13" dominant-baseline="central">linkedin</text></svg>