<svg xmlns="http://www.w3.org/2000/svg" viewBox="0 0 93 36" width="93" height="36" font-family="ui-monospace, 'SF Mono', SFMono-Regular, Menlo, Consolas, 'Liberation Mono', monospace" role="img" aria-label="email"><!-- @atikulmunna --><metadata>@atikulmunna</metadata><title>@atikulmunna · email</title><style>.pill{fill:#050507}.ic{fill:#c4b5fd}.tx{fill:#c4b5fd;font-weight:700}.star{fill:#7c3aed}@media(prefers-color-scheme:dark){.pill{fill:#1c1730}.star{fill:#a78bfa}}</style><clipPath id="pc"><rect x="0" y="0" width="93" height="36" rx="8"/></clipPath><rect class="pill" x="0" y="0" width="93" height="36" rx="8"/><g clip-path="url(#pc)"><circle class="star" cx="91" cy="2" r="0.9" opacity="0.68"><animate attributeName="cy" values="-8;44" dur="4.9s" begin="-0.7s" repeatCount="indefinite"/></circle><circle class="star" cx="40" cy="27" r="0.9" opacity="0.7"><animate attributeName="cy" values="-8;44" dur="4.7s" begin="-2.0s" repeatCount="indefinite"/></circle><circle class="star" cx="56" cy="35" r="1.7" opacity="0.74"><animate attributeName="cy" values="-8;44" dur="4.1s" begin="-1.3s" repeatCount="indefinite"/></circle><circle class="star" cx="20" cy="14" r="0.9" opacity="0.36"><animate attributeName="cy" values="-8;44" dur="9.2s" begin="-8.7s" repeatCount="indefinite"/></circle><circle class="star" cx="63" cy="4" r="0.9" opacity="0.6"><animate attributeName="cy" values="-8;44" dur="5.9s" begin="-1.5s" repeatCount="indefinite"/></circle><circle class="star" cx="79" cy="35" r="0.9" opacity="0.34"><animate attributeName="cy" values="-8;44" dur="9.5s" begin="-7.7s" repeatCount="indefinite"/></circle><circle class="star" cx="64" cy="36" r="0.9" opacity="0.57"><animate attributeName="cy" values="-8;44" dur="6.3s" begin="-2.2s" repeatCount="indefinite"/></circle><circle class="star" cx="69" cy="4" r="0.9" opacity="0.32"><animate attributeName="cy" values="-8;44" dur="9.7s" begin="-4.2s" repeatCount="indefinite"/></circle><circle class="star" cx="12" cy="19" r="0.9" opacity="0.6"><animate attributeName="cy" values="-8;44" dur="6.0s" begin="-3.9s" repeatCount="indefinite"/></circle><circle class="star" cx="55" cy="28" r="0.9" opacity="0.74"><animate attributeName="cy" values="-8;44" dur="4.1s" begin="-0.7s" repeatCount="indefinite"/></circle></g><g transform="translate(13,10.5) scale(0.6250)"><path class="ic" d="m15.24 8.998 3.656-3.073v15.81H2.482C1.11 21.735 0 20.609 0 19.223V6.944l7.58 6.38a2.186 2.186 0 0 0 2.871-.042l4.792-4.284h-.003zm-5.456 3.538 1.809-1.616a2.438 2.438 0 0 1-1.178-.533L.905 2.395A.552.552 0 0 0 0 2.826v2.811l8.226 6.923a1.186 1.186 0 0 0 1.558-.024zM23.871 2.463a.551.551 0 0 0-.776-.068l-3.199 2.688v16.653h1.623c1.371 0 2.481-1.127 2.481-2.513V2.824a.551.551 0 0 0-.129-.36z"/></g><text class="tx" x="37" y="18" font-size="13" dominant-baseline="central">email</text></svg>