<svg xmlns="http://www.w3.org/2000/svg" viewBox="0 0 108 36" width="108" height="36" font-family="ui-monospace, 'SF Mono', SFMono-Regular, Menlo, Consolas, 'Liberation Mono', monospace" role="img" aria-label="discord"><!-- @atikulmunna --><metadata>@atikulmunna</metadata><title>@atikulmunna · discord</title><style>.pill{fill:#050507}.ic{fill:#c4b5fd}.tx{fill:#c4b5fd;font-weight:700}.star{fill:#7c3aed}@media(prefers-color-scheme:dark){.pill{fill:#1c1730}.star{fill:#a78bfa}}</style><clipPath id="pc"><rect x="0" y="0" width="108" height="36" rx="8"/></clipPath><rect class="pill" x="0" y="0" width="108" height="36" rx="8"/><g clip-path="url(#pc)"><circle class="star" cx="33" cy="19" r="1.7" opacity="0.43"><animate attributeName="cy" values="-8;44" dur="8.2s" begin="-0.0s" repeatCount="indefinite"/></circle><circle class="star" cx="34" cy="10" r="0.9" opacity="0.35"><animate attributeName="cy" values="-8;44" dur="9.4s" begin="-1.3s" repeatCount="indefinite"/></circle><circle class="star" cx="35" cy="20" r="0.9" opacity="0.71"><animate attributeName="cy" values="-8;44" dur="4.5s" begin="-2.1s" repeatCount="indefinite"/></circle><circle class="star" cx="54" cy="13" r="0.9" opacity="0.36"><animate attributeName="cy" values="-8;44" dur="9.2s" begin="-1.6s" repeatCount="indefinite"/></circle><circle class="star" cx="12" cy="33" r="1.7" opacity="0.69"><animate attributeName="cy" values="-8;44" dur="4.8s" begin="-1.2s" repeatCount="indefinite"/></circle><circle class="star" cx="46" cy="18" r="0.9" opacity="0.45"><animate attributeName="cy" values="-8;44" dur="8.0s" begin="-6.9s" repeatCount="indefinite"/></circle><circle class="star" cx="18" cy="10" r="1.7" opacity="0.51"><animate attributeName="cy" values="-8;44" dur="7.2s" begin="-6.4s" repeatCount="indefinite"/></circle><circle class="star" cx="36" cy="14" r="1.7" opacity="0.29"><animate attributeName="cy" values="-8;44" dur="10.1s" begin="-4.7s" repeatCount="indefinite"/></circle><circle class="star" cx="61" cy="1" r="0.9" opacity="0.74"><animate attributeName="cy" values="-8;44" dur="4.2s" begin="-2.8s" repeatCount="indefinite"/></circle><circle class="star" cx="22" cy="15" r="0.9" opacity="0.42"><animate attributeName="cy" values="-8;44" dur="8.3s" begin="-0.5s" repeatCount="indefinite"/></circle><circle class="star" cx="82" cy="20" r="0.9" opacity="0.37"><animate attributeName="cy" values="-8;44" dur="9.1s" begin="-8.7s" repeatCount="indefinite"/></circle><circle class="star" cx="59" cy="16" r="0.9" opacity="0.48"><animate attributeName="cy" values="-8;44" dur="7.7s" begin="-4.5s" repeatCount="indefinite"/></circle></g><g transform="translate(13,10.5) scale(0.6250)"><path class="ic" d="M20.317 4.3698a19.7913 19.7913 0 00-4.8851-1.5152.0741.0741 0 00-.0785.0371c-.211.3753-.4447.8648-.6083 1.2495-1.8447-.2762-3.68-.2762-5.4868 0-.1636-.3933-.4058-.8742-.6177-1.2495a.077.077 0 00-.0785-.037 19.7363 19.7363 0 00-4.8852 1.515.0699.0699 0 00-.0321.0277C.5334 9.0458-.319 13.5799.0992 18.0578a.0824.0824 0 00.0312.0561c2.0528 1.5076 4.0413 2.4228 5.9929 3.0294a.0777.0777 0 00.0842-.0276c.4616-.6304.8731-1.2952 1.226-1.9942a.076.076 0 00-.0416-.1057c-.6528-.2476-1.2743-.5495-1.8722-.8923a.077.077 0 01-.0076-.1277c.1258-.0943.2517-.1923.3718-.2914a.0743.0743 0 01.0776-.0105c3.9278 1.7933 8.18 1.7933 12.0614 0a.0739.0739 0 01.0785.0095c.1202.099.246.1981.3728.2924a.077.077 0 01-.0066.1276 12.2986 12.2986 0 01-1.873.8914.0766.0766 0 00-.0407.1067c.3604.698.7719 1.3628 1.225 1.9932a.076.076 0 00.0842.0286c1.961-.6067 3.9495-1.5219 6.0023-3.0294a.077.077 0 00.0313-.0552c.5004-5.177-.8382-9.6739-3.5485-13.6604a.061.061 0 00-.0312-.0286zM8.02 15.3312c-1.1825 0-2.1569-1.0857-2.1569-2.419 0-1.3332.9555-2.4189 2.157-2.4189 1.2108 0 2.1757 1.0952 2.1568 2.419 0 1.3332-.9555 2.4189-2.1569 2.4189zm7.9748 0c-1.1825 0-2.1569-1.0857-2.1569-2.419 0-1.3332.9554-2.4189 2.1569-2.4189 1.2108 0 2.1757 1.0952 2.1568 2.419 0 1.3332-.946 2.4189-2.1568 2.4189Z"/></g><text class="tx" x="37" y="18" font-size="13" dominant-baseline="central">discord</text></svg>