<svg xmlns="http://www.w3.org/2000/svg" viewBox="0 0 116 36" width="116" height="36" font-family="ui-monospace, 'SF Mono', SFMono-Regular, Menlo, Consolas, 'Liberation Mono', monospace" role="img" aria-label="linkedin"><!-- @atikulmunna --><metadata>@atikulmunna</metadata><title>@atikulmunna · linkedin</title><style>.pill{fill:#050507}.ic{fill:#c4b5fd}.tx{fill:#c4b5fd;font-weight:700}.star{fill:#7c3aed}@media(prefers-color-scheme:dark){.pill{fill:#1c1730}.star{fill:#a78bfa}}</style><clipPath id="pc"><rect x="0" y="0" width="116" height="36" rx="8"/></clipPath><rect class="pill" x="0" y="0" width="116" height="36" rx="8"/><g clip-path="url(#pc)"><circle class="star" cx="12" cy="18" r="0.9" opacity="0.35"><animate attributeName="cy" values="-8;44" dur="9.4s" begin="-9.3s" repeatCount="indefinite"/></circle><circle class="star" cx="17" cy="17" r="1.7" opacity="0.7"><animate attributeName="cy" values="-8;44" dur="4.7s" begin="-1.0s" repeatCount="indefinite"/></circle><circle class="star" cx="43" cy="2" r="0.9" opacity="0.4"><animate attributeName="cy" values="-8;44" dur="8.6s" begin="-3.7s" repeatCount="indefinite"/></circle><circle class="star" cx="90" cy="5" r="0.9" opacity="0.45"><animate attributeName="cy" values="-8;44" dur="8.0s" begin="-5.4s" repeatCount="indefinite"/></circle><circle class="star" cx="90" cy="12" r="0.9" opacity="0.43"><animate attributeName="cy" values="-8;44" dur="8.3s" begin="-3.1s" repeatCount="indefinite"/></circle><circle class="star" cx="70" cy="30" r="1.7" opacity="0.42"><animate attributeName="cy" values="-8;44" dur="8.4s" begin="-1.5s" repeatCount="indefinite"/></circle><circle class="star" cx="36" cy="32" r="0.9" opacity="0.28"><animate attributeName="cy" values="-8;44" dur="10.3s" begin="-2.1s" repeatCount="indefinite"/></circle><circle class="star" cx="10" cy="21" r="1.7" opacity="0.73"><animate attributeName="cy" values="-8;44" dur="4.3s" begin="-1.6s" repeatCount="indefinite"/></circle><circle class="star" cx="34" cy="8" r="0.9" opacity="0.39"><animate attributeName="cy" values="-8;44" dur="8.8s" begin="-0.8s" repeatCount="indefinite"/></circle><circle class="star" cx="78" cy="21" r="0.9" opacity="0.48"><animate attributeName="cy" values="-8;44" dur="7.6s" begin="-0.7s" repeatCount="indefinite"/></circle><circle class="star" cx="67" cy="10" r="0.9" opacity="0.3"><animate attributeName="cy" values="-8;44" dur="10.0s" begin="-6.4s" repeatCount="indefinite"/></circle><circle class="star" cx="92" cy="21" r="1.7" opacity="0.71"><animate attributeName="cy" values="-8;44" dur="4.5s" begin="-4.4s" repeatCount="indefinite"/></circle></g><g transform="translate(13,10.5) scale(0.6250)"><path class="ic" d="M20.447 20.452h-3.554v-5.569c0-1.328-.027-3.037-1.852-3.037-1.853 0-2.136 1.445-2.136 2.939v5.667H9.351V9h3.414v1.561h.046c.477-.9 1.637-1.85 3.37-1.85 3.601 0 4.267 2.37 4.267 5.455v6.286zM5.337 7.433a2.062 2.062 0 01-2.063-2.065 2.064 2.064 0 112.063 2.065zm1.782 13.019H3.555V9h3.564v11.452zM22.225 0H1.771C.792 0 0 .774 0 1.729v20.542C0 23.227.792 24 1.771 24h20.451C23.2 24 24 23.227 24 22.271V1.729C24 .774 23.2 0 22.222 0h.003z"/></g><text class="tx" x="37" y="18" font-size="13" dominant-baseline="central">linkedin</text></svg>