<svg xmlns="http://www.w3.org/2000/svg" viewBox="0 0 125 52" width="125" height="52" font-family="ui-monospace, 'SF Mono', SFMono-Regular, Menlo, Consolas, 'Liberation Mono', monospace" role="img" aria-label="email"><!-- @atikulmunna --><metadata>@atikulmunna</metadata><title>@atikulmunna · email</title><style>.pill{fill:#050507}.ic{fill:#c4b5fd}.tx{fill:#c4b5fd;font-weight:700}.star{fill:#7c3aed}@media(prefers-color-scheme:dark){.pill{fill:#1c1730}.star{fill:#a78bfa}}</style><clipPath id="pc"><rect x="16" y="8" width="93" height="36" rx="8"/></clipPath><circle class="star" cx="123" cy="3" r="0.9" opacity="0.69"><animate attributeName="cy" values="-8;60" dur="4.9s" begin="-0.7s" repeatCount="indefinite"/></circle><circle class="star" cx="54" cy="39" r="0.9" opacity="0.71"><animate attributeName="cy" values="-8;60" dur="4.7s" begin="-2.0s" repeatCount="indefinite"/></circle><circle class="star" cx="75" cy="51" r="1.7" opacity="0.75"><animate attributeName="cy" values="-8;60" dur="4.1s" begin="-1.3s" repeatCount="indefinite"/></circle><circle class="star" cx="27" cy="20" r="0.9" opacity="0.37"><animate attributeName="cy" values="-8;60" dur="9.2s" begin="-8.7s" repeatCount="indefinite"/></circle><circle class="star" cx="85" cy="6" r="0.9" opacity="0.61"><animate attributeName="cy" values="-8;60" dur="5.9s" begin="-1.5s" repeatCount="indefinite"/></circle><circle class="star" cx="107" cy="51" r="0.9" opacity="0.35"><animate attributeName="cy" values="-8;60" dur="9.5s" begin="-7.7s" repeatCount="indefinite"/></circle><circle class="star" cx="87" cy="51" r="0.9" opacity="0.58"><animate attributeName="cy" values="-8;60" dur="6.3s" begin="-2.2s" repeatCount="indefinite"/></circle><circle class="star" cx="93" cy="6" r="0.9" opacity="0.33"><animate attributeName="cy" values="-8;60" dur="9.7s" begin="-4.2s" repeatCount="indefinite"/></circle><circle class="star" cx="16" cy="28" r="0.9" opacity="0.61"><animate attributeName="cy" values="-8;60" dur="6.0s" begin="-3.9s" repeatCount="indefinite"/></circle><circle class="star" cx="75" cy="40" r="0.9" opacity="0.75"><animate attributeName="cy" values="-8;60" dur="4.1s" begin="-0.7s" repeatCount="indefinite"/></circle><circle class="star" cx="20" cy="24" r="0.9" opacity="0.65"><animate attributeName="cy" values="-8;60" dur="5.5s" begin="-4.6s" repeatCount="indefinite"/></circle><circle class="star" cx="78" cy="13" r="1.7" opacity="0.33"><animate attributeName="cy" values="-8;60" dur="9.7s" begin="-5.0s" repeatCount="indefinite"/></circle><circle class="star" cx="21" cy="52" r="0.9" opacity="0.58"><animate attributeName="cy" values="-8;60" dur="6.5s" begin="-6.1s" repeatCount="indefinite"/></circle><circle class="star" cx="107" cy="7" r="0.9" opacity="0.46"><animate attributeName="cy" values="-8;60" dur="8.0s" begin="-3.8s" repeatCount="indefinite"/></circle><circle class="star" cx="88" cy="33" r="0.9" opacity="0.71"><animate attributeName="cy" values="-8;60" dur="4.6s" begin="-0.1s" repeatCount="indefinite"/></circle><circle class="star" cx="51" cy="27" r="1.7" opacity="0.42"><animate attributeName="cy" values="-8;60" dur="8.5s" begin="-3.1s" repeatCount="indefinite"/></circle><circle class="star" cx="52" cy="45" r="0.9" opacity="0.36"><animate attributeName="cy" values="-8;60" dur="9.3s" begin="-6.5s" repeatCount="indefinite"/></circle><circle class="star" cx="25" cy="28" r="0.9" opacity="0.37"><animate attributeName="cy" values="-8;60" dur="9.2s" begin="-6.7s" repeatCount="indefinite"/></circle><circle class="star" cx="41" cy="3" r="0.9" opacity="0.56"><animate attributeName="cy" values="-8;60" dur="6.7s" begin="-5.5s" repeatCount="indefinite"/></circle><circle class="star" cx="85" cy="44" r="0.9" opacity="0.53"><animate attributeName="cy" values="-8;60" dur="7.1s" begin="-1.7s" repeatCount="indefinite"/></circle><rect class="pill" x="16" y="8" width="93" height="36" rx="8"/><g clip-path="url(#pc)"><circle class="star" cx="63" cy="8" r="1.62" opacity="0.49"><animate attributeName="cy" values="0;52" dur="9.4s" begin="-8.8s" repeatCount="indefinite"/></circle><circle class="star" cx="97" cy="28" r="3.06" opacity="0.49"><animate attributeName="cy" values="0;52" dur="9.5s" begin="-0.9s" repeatCount="indefinite"/></circle><circle class="star" cx="56" cy="11" r="1.62" opacity="0.74"><animate attributeName="cy" values="0;52" dur="6.1s" begin="-4.1s" repeatCount="indefinite"/></circle><circle class="star" cx="77" cy="37" r="1.62" opacity="0.71"><animate attributeName="cy" values="0;52" dur="6.5s" begin="-1.8s" repeatCount="indefinite"/></circle><circle class="star" cx="59" cy="37" r="3.06" opacity="0.5"><animate attributeName="cy" values="0;52" dur="9.4s" begin="-1.7s" repeatCount="indefinite"/></circle><circle class="star" cx="104" cy="39" r="1.62" opacity="0.71"><animate attributeName="cy" values="0;52" dur="6.6s" begin="-4.1s" repeatCount="indefinite"/></circle><circle class="star" cx="28" cy="42" r="1.62" opacity="0.54"><animate attributeName="cy" values="0;52" dur="8.9s" begin="-8.4s" repeatCount="indefinite"/></circle><circle class="star" cx="27" cy="30" r="3.06" opacity="0.47"><animate attributeName="cy" values="0;52" dur="9.7s" begin="-6.0s" repeatCount="indefinite"/></circle><circle class="star" cx="42" cy="40" r="1.62" opacity="0.45"><animate attributeName="cy" values="0;52" dur="10.0s" begin="-6.2s" repeatCount="indefinite"/></circle><circle class="star" cx="101" cy="9" r="1.62" opacity="0.72"><animate attributeName="cy" values="0;52" dur="6.4s" begin="-3.4s" repeatCount="indefinite"/></circle><circle class="star" cx="16" cy="24" r="1.62" opacity="0.79"><animate attributeName="cy" values="0;52" dur="5.5s" begin="-2.4s" repeatCount="indefinite"/></circle><circle class="star" cx="21" cy="16" r="1.62" opacity="0.58"><animate attributeName="cy" values="0;52" dur="8.3s" begin="-2.7s" repeatCount="indefinite"/></circle><circle class="star" cx="84" cy="15" r="3.06" opacity="0.51"><animate attributeName="cy" values="0;52" dur="9.1s" begin="-4.9s" repeatCount="indefinite"/></circle><circle class="star" cx="79" cy="17" r="1.62" opacity="0.76"><animate attributeName="cy" values="0;52" dur="5.8s" begin="-3.3s" repeatCount="indefinite"/></circle><circle class="star" cx="18" cy="12" r="3.06" opacity="0.47"><animate attributeName="cy" values="0;52" dur="9.7s" begin="-4.5s" repeatCount="indefinite"/></circle><circle class="star" cx="88" cy="30" r="3.06" opacity="0.57"><animate attributeName="cy" values="0;52" dur="8.4s" begin="-7.2s" repeatCount="indefinite"/></circle><circle class="star" cx="44" cy="16" r="3.06" opacity="0.54"><animate attributeName="cy" values="0;52" dur="8.9s" begin="-0.7s" repeatCount="indefinite"/></circle><circle class="star" cx="32" cy="16" r="1.62" opacity="0.48"><animate attributeName="cy" values="0;52" dur="9.6s" begin="-4.1s" repeatCount="indefinite"/></circle><circle class="star" cx="17" cy="22" r="1.62" opacity="0.71"><animate attributeName="cy" values="0;52" dur="6.6s" begin="-3.0s" repeatCount="indefinite"/></circle><circle class="star" cx="53" cy="26" r="3.06" opacity="0.77"><animate attributeName="cy" values="0;52" dur="5.8s" begin="-2.2s" repeatCount="indefinite"/></circle></g><g transform="translate(29,18.5) scale(0.6250)"><path class="ic" d="m15.24 8.998 3.656-3.073v15.81H2.482C1.11 21.735 0 20.609 0 19.223V6.944l7.58 6.38a2.186 2.186 0 0 0 2.871-.042l4.792-4.284h-.003zm-5.456 3.538 1.809-1.616a2.438 2.438 0 0 1-1.178-.533L.905 2.395A.552.552 0 0 0 0 2.826v2.811l8.226 6.923a1.186 1.186 0 0 0 1.558-.024zM23.871 2.463a.551.551 0 0 0-.776-.068l-3.199 2.688v16.653h1.623c1.371 0 2.481-1.127 2.481-2.513V2.824a.551.551 0 0 0-.129-.36z"/></g><text class="tx" x="53" y="26" font-size="13" dominant-baseline="central">email</text></svg>