<svg xmlns="http://www.w3.org/2000/svg" viewBox="0 0 140 52" width="140" height="52" font-family="ui-monospace, 'SF Mono', SFMono-Regular, Menlo, Consolas, 'Liberation Mono', monospace" role="img" aria-label="discord"><!-- @atikulmunna --><metadata>@atikulmunna</metadata><title>@atikulmunna · discord</title><style>.pill{fill:#050507}.ic{fill:#c4b5fd}.tx{fill:#c4b5fd;font-weight:700}.star{fill:#7c3aed}@media(prefers-color-scheme:dark){.pill{fill:#1c1730}.star{fill:#a78bfa}}</style><clipPath id="pc"><rect x="16" y="8" width="108" height="36" rx="8"/></clipPath><circle class="star" cx="43" cy="28" r="1.7" opacity="0.44"><animate attributeName="cy" values="-8;60" dur="8.2s" begin="-0.0s" repeatCount="indefinite"/></circle><circle class="star" cx="45" cy="14" r="0.9" opacity="0.36"><animate attributeName="cy" values="-8;60" dur="9.4s" begin="-1.3s" repeatCount="indefinite"/></circle><circle class="star" cx="45" cy="29" r="0.9" opacity="0.72"><animate attributeName="cy" values="-8;60" dur="4.5s" begin="-2.1s" repeatCount="indefinite"/></circle><circle class="star" cx="71" cy="19" r="0.9" opacity="0.37"><animate attributeName="cy" values="-8;60" dur="9.2s" begin="-1.6s" repeatCount="indefinite"/></circle><circle class="star" cx="16" cy="48" r="1.7" opacity="0.7"><animate attributeName="cy" values="-8;60" dur="4.8s" begin="-1.2s" repeatCount="indefinite"/></circle><circle class="star" cx="60" cy="26" r="0.9" opacity="0.46"><animate attributeName="cy" values="-8;60" dur="8.0s" begin="-6.9s" repeatCount="indefinite"/></circle><circle class="star" cx="23" cy="14" r="1.7" opacity="0.52"><animate attributeName="cy" values="-8;60" dur="7.2s" begin="-6.4s" repeatCount="indefinite"/></circle><circle class="star" cx="47" cy="20" r="1.7" opacity="0.3"><animate attributeName="cy" values="-8;60" dur="10.1s" begin="-4.7s" repeatCount="indefinite"/></circle><circle class="star" cx="79" cy="1" r="0.9" opacity="0.75"><animate attributeName="cy" values="-8;60" dur="4.2s" begin="-2.8s" repeatCount="indefinite"/></circle><circle class="star" cx="28" cy="22" r="0.9" opacity="0.43"><animate attributeName="cy" values="-8;60" dur="8.3s" begin="-0.5s" repeatCount="indefinite"/></circle><circle class="star" cx="107" cy="29" r="0.9" opacity="0.38"><animate attributeName="cy" values="-8;60" dur="9.1s" begin="-8.7s" repeatCount="indefinite"/></circle><circle class="star" cx="77" cy="23" r="0.9" opacity="0.49"><animate attributeName="cy" values="-8;60" dur="7.7s" begin="-4.5s" repeatCount="indefinite"/></circle><circle class="star" cx="35" cy="17" r="0.9" opacity="0.33"><animate attributeName="cy" values="-8;60" dur="9.7s" begin="-6.8s" repeatCount="indefinite"/></circle><circle class="star" cx="1" cy="17" r="0.9" opacity="0.36"><animate attributeName="cy" values="-8;60" dur="9.3s" begin="-5.8s" repeatCount="indefinite"/></circle><circle class="star" cx="112" cy="5" r="0.9" opacity="0.5"><animate attributeName="cy" values="-8;60" dur="7.4s" begin="-2.1s" repeatCount="indefinite"/></circle><circle class="star" cx="99" cy="26" r="0.9" opacity="0.31"><animate attributeName="cy" values="-8;60" dur="10.0s" begin="-1.2s" repeatCount="indefinite"/></circle><circle class="star" cx="50" cy="42" r="1.7" opacity="0.62"><animate attributeName="cy" values="-8;60" dur="5.9s" begin="-1.0s" repeatCount="indefinite"/></circle><circle class="star" cx="111" cy="47" r="0.9" opacity="0.72"><animate attributeName="cy" values="-8;60" dur="4.6s" begin="-0.8s" repeatCount="indefinite"/></circle><circle class="star" cx="93" cy="47" r="0.9" opacity="0.5"><animate attributeName="cy" values="-8;60" dur="7.5s" begin="-0.1s" repeatCount="indefinite"/></circle><circle class="star" cx="85" cy="42" r="0.9" opacity="0.49"><animate attributeName="cy" values="-8;60" dur="7.5s" begin="-5.4s" repeatCount="indefinite"/></circle><circle class="star" cx="98" cy="15" r="0.9" opacity="0.63"><animate attributeName="cy" values="-8;60" dur="5.7s" begin="-4.4s" repeatCount="indefinite"/></circle><circle class="star" cx="136" cy="12" r="0.9" opacity="0.35"><animate attributeName="cy" values="-8;60" dur="9.4s" begin="-2.3s" repeatCount="indefinite"/></circle><circle class="star" cx="75" cy="4" r="0.9" opacity="0.34"><animate attributeName="cy" values="-8;60" dur="9.6s" begin="-3.6s" repeatCount="indefinite"/></circle><rect class="pill" x="16" y="8" width="108" height="36" rx="8"/><g clip-path="url(#pc)"><circle class="star" cx="88" cy="27" r="1.62" opacity="0.76"><animate attributeName="cy" values="0;52" dur="5.9s" begin="-5.2s" repeatCount="indefinite"/></circle><circle class="star" cx="60" cy="28" r="1.62" opacity="0.58"><animate attributeName="cy" values="0;52" dur="8.3s" begin="-2.5s" repeatCount="indefinite"/></circle><circle class="star" cx="30" cy="15" r="1.62" opacity="0.66"><animate attributeName="cy" values="0;52" dur="7.3s" begin="-4.8s" repeatCount="indefinite"/></circle><circle class="star" cx="102" cy="12" r="1.62" opacity="0.58"><animate attributeName="cy" values="0;52" dur="8.2s" begin="-3.9s" repeatCount="indefinite"/></circle><circle class="star" cx="53" cy="21" r="3.06" opacity="0.55"><animate attributeName="cy" values="0;52" dur="8.7s" begin="-1.9s" repeatCount="indefinite"/></circle><circle class="star" cx="114" cy="10" r="1.62" opacity="0.73"><animate attributeName="cy" values="0;52" dur="6.3s" begin="-3.6s" repeatCount="indefinite"/></circle><circle class="star" cx="51" cy="21" r="1.62" opacity="0.72"><animate attributeName="cy" values="0;52" dur="6.3s" begin="-0.7s" repeatCount="indefinite"/></circle><circle class="star" cx="116" cy="40" r="1.62" opacity="0.43"><animate attributeName="cy" values="0;52" dur="10.2s" begin="-5.5s" repeatCount="indefinite"/></circle><circle class="star" cx="71" cy="39" r="1.62" opacity="0.62"><animate attributeName="cy" values="0;52" dur="7.8s" begin="-0.2s" repeatCount="indefinite"/></circle><circle class="star" cx="32" cy="14" r="1.62" opacity="0.43"><animate attributeName="cy" values="0;52" dur="10.3s" begin="-2.1s" repeatCount="indefinite"/></circle><circle class="star" cx="39" cy="41" r="1.62" opacity="0.82"><animate attributeName="cy" values="0;52" dur="5.0s" begin="-1.2s" repeatCount="indefinite"/></circle><circle class="star" cx="122" cy="34" r="1.62" opacity="0.65"><animate attributeName="cy" values="0;52" dur="7.3s" begin="-5.9s" repeatCount="indefinite"/></circle><circle class="star" cx="109" cy="10" r="3.06" opacity="0.9"><animate attributeName="cy" values="0;52" dur="4.0s" begin="-0.3s" repeatCount="indefinite"/></circle><circle class="star" cx="77" cy="35" r="1.62" opacity="0.72"><animate attributeName="cy" values="0;52" dur="6.4s" begin="-3.5s" repeatCount="indefinite"/></circle><circle class="star" cx="66" cy="31" r="1.62" opacity="0.53"><animate attributeName="cy" values="0;52" dur="9.0s" begin="-2.7s" repeatCount="indefinite"/></circle><circle class="star" cx="73" cy="10" r="3.06" opacity="0.82"><animate attributeName="cy" values="0;52" dur="5.0s" begin="-2.6s" repeatCount="indefinite"/></circle><circle class="star" cx="103" cy="41" r="3.06" opacity="0.63"><animate attributeName="cy" values="0;52" dur="7.5s" begin="-0.3s" repeatCount="indefinite"/></circle><circle class="star" cx="118" cy="31" r="1.62" opacity="0.54"><animate attributeName="cy" values="0;52" dur="8.8s" begin="-1.0s" repeatCount="indefinite"/></circle><circle class="star" cx="115" cy="10" r="3.06" opacity="0.77"><animate attributeName="cy" values="0;52" dur="5.7s" begin="-1.7s" repeatCount="indefinite"/></circle><circle class="star" cx="83" cy="27" r="3.06" opacity="0.66"><animate attributeName="cy" values="0;52" dur="7.2s" begin="-5.2s" repeatCount="indefinite"/></circle><circle class="star" cx="35" cy="15" r="3.06" opacity="0.62"><animate attributeName="cy" values="0;52" dur="7.7s" begin="-0.5s" repeatCount="indefinite"/></circle></g><g transform="translate(29,18.5) scale(0.6250)"><path class="ic" d="M20.317 4.3698a19.7913 19.7913 0 00-4.8851-1.5152.0741.0741 0 00-.0785.0371c-.211.3753-.4447.8648-.6083 1.2495-1.8447-.2762-3.68-.2762-5.4868 0-.1636-.3933-.4058-.8742-.6177-1.2495a.077.077 0 00-.0785-.037 19.7363 19.7363 0 00-4.8852 1.515.0699.0699 0 00-.0321.0277C.5334 9.0458-.319 13.5799.0992 18.0578a.0824.0824 0 00.0312.0561c2.0528 1.5076 4.0413 2.4228 5.9929 3.0294a.0777.0777 0 00.0842-.0276c.4616-.6304.8731-1.2952 1.226-1.9942a.076.076 0 00-.0416-.1057c-.6528-.2476-1.2743-.5495-1.8722-.8923a.077.077 0 01-.0076-.1277c.1258-.0943.2517-.1923.3718-.2914a.0743.0743 0 01.0776-.0105c3.9278 1.7933 8.18 1.7933 12.0614 0a.0739.0739 0 01.0785.0095c.1202.099.246.1981.3728.2924a.077.077 0 01-.0066.1276 12.2986 12.2986 0 01-1.873.8914.0766.0766 0 00-.0407.1067c.3604.698.7719 1.3628 1.225 1.9932a.076.076 0 00.0842.0286c1.961-.6067 3.9495-1.5219 6.0023-3.0294a.077.077 0 00.0313-.0552c.5004-5.177-.8382-9.6739-3.5485-13.6604a.061.061 0 00-.0312-.0286zM8.02 15.3312c-1.1825 0-2.1569-1.0857-2.1569-2.419 0-1.3332.9555-2.4189 2.157-2.4189 1.2108 0 2.1757 1.0952 2.1568 2.419 0 1.3332-.9555 2.4189-2.1569 2.4189zm7.9748 0c-1.1825 0-2.1569-1.0857-2.1569-2.419 0-1.3332.9554-2.4189 2.1569-2.4189 1.2108 0 2.1757 1.0952 2.1568 2.419 0 1.3332-.946 2.4189-2.1568 2.4189Z"/></g><text class="tx" x="53" y="26" font-size="13" dominant-baseline="central">discord</text></svg>