<svg xmlns="http://www.w3.org/2000/svg" viewBox="0 0 121 50" width="121" height="50" font-family="ui-monospace, 'SF Mono', SFMono-Regular, Menlo, Consolas, 'Liberation Mono', monospace" role="img" aria-label="email"><!-- @atikulmunna --><metadata>@atikulmunna</metadata><title>@atikulmunna · email</title><style>.pill{fill:#050507}.ic{fill:#c4b5fd}.tx{fill:#c4b5fd;font-weight:700}.star{fill:#7c3aed}@media(prefers-color-scheme:dark){.pill{fill:#1c1730}.star{fill:#a78bfa}}</style><clipPath id="pc"><rect x="14" y="7" width="93" height="36" rx="8"/></clipPath><circle class="star" cx="119" cy="3" r="0.9" opacity="0.65"><animate attributeName="cy" values="-8;58" dur="4.9s" begin="-0.7s" repeatCount="indefinite"/></circle><circle class="star" cx="53" cy="38" r="0.9" opacity="0.66"><animate attributeName="cy" values="-8;58" dur="4.7s" begin="-2.0s" repeatCount="indefinite"/></circle><circle class="star" cx="73" cy="49" r="1.7" opacity="0.7"><animate attributeName="cy" values="-8;58" dur="4.1s" begin="-1.3s" repeatCount="indefinite"/></circle><circle class="star" cx="26" cy="19" r="0.9" opacity="0.35"><animate attributeName="cy" values="-8;58" dur="9.2s" begin="-8.7s" repeatCount="indefinite"/></circle><circle class="star" cx="82" cy="6" r="0.9" opacity="0.58"><animate attributeName="cy" values="-8;58" dur="5.9s" begin="-1.5s" repeatCount="indefinite"/></circle><circle class="star" cx="103" cy="49" r="0.9" opacity="0.33"><animate attributeName="cy" values="-8;58" dur="9.5s" begin="-7.7s" repeatCount="indefinite"/></circle><circle class="star" cx="84" cy="49" r="0.9" opacity="0.55"><animate attributeName="cy" values="-8;58" dur="6.3s" begin="-2.2s" repeatCount="indefinite"/></circle><circle class="star" cx="90" cy="5" r="0.9" opacity="0.32"><animate attributeName="cy" values="-8;58" dur="9.7s" begin="-4.2s" repeatCount="indefinite"/></circle><circle class="star" cx="16" cy="27" r="0.9" opacity="0.57"><animate attributeName="cy" values="-8;58" dur="6.0s" begin="-3.9s" repeatCount="indefinite"/></circle><circle class="star" cx="72" cy="38" r="0.9" opacity="0.7"><animate attributeName="cy" values="-8;58" dur="4.1s" begin="-0.7s" repeatCount="indefinite"/></circle><circle class="star" cx="19" cy="23" r="0.9" opacity="0.61"><animate attributeName="cy" values="-8;58" dur="5.5s" begin="-4.6s" repeatCount="indefinite"/></circle><circle class="star" cx="75" cy="12" r="1.7" opacity="0.32"><animate attributeName="cy" values="-8;58" dur="9.7s" begin="-5.0s" repeatCount="indefinite"/></circle><circle class="star" cx="20" cy="50" r="0.9" opacity="0.54"><animate attributeName="cy" values="-8;58" dur="6.5s" begin="-6.1s" repeatCount="indefinite"/></circle><circle class="star" cx="103" cy="7" r="0.9" opacity="0.43"><animate attributeName="cy" values="-8;58" dur="8.0s" begin="-3.8s" repeatCount="indefinite"/></circle><circle class="star" cx="85" cy="32" r="0.9" opacity="0.67"><animate attributeName="cy" values="-8;58" dur="4.6s" begin="-0.1s" repeatCount="indefinite"/></circle><rect class="pill" x="14" y="7" width="93" height="36" rx="8"/><g clip-path="url(#pc)"><circle class="star" cx="61" cy="7" r="1.1700000000000002" opacity="0.17"><animate attributeName="cy" values="-1;51" dur="9.4s" begin="-8.8s" repeatCount="indefinite"/></circle><circle class="star" cx="95" cy="27" r="2.21" opacity="0.17"><animate attributeName="cy" values="-1;51" dur="9.5s" begin="-0.9s" repeatCount="indefinite"/></circle><circle class="star" cx="54" cy="10" r="1.1700000000000002" opacity="0.26"><animate attributeName="cy" values="-1;51" dur="6.1s" begin="-4.1s" repeatCount="indefinite"/></circle><circle class="star" cx="75" cy="36" r="1.1700000000000002" opacity="0.25"><animate attributeName="cy" values="-1;51" dur="6.5s" begin="-1.8s" repeatCount="indefinite"/></circle><circle class="star" cx="57" cy="36" r="2.21" opacity="0.17"><animate attributeName="cy" values="-1;51" dur="9.4s" begin="-1.7s" repeatCount="indefinite"/></circle><circle class="star" cx="102" cy="38" r="1.1700000000000002" opacity="0.25"><animate attributeName="cy" values="-1;51" dur="6.6s" begin="-4.1s" repeatCount="indefinite"/></circle><circle class="star" cx="26" cy="41" r="1.1700000000000002" opacity="0.19"><animate attributeName="cy" values="-1;51" dur="8.9s" begin="-8.4s" repeatCount="indefinite"/></circle></g><g transform="translate(27,17.5) scale(0.6250)"><path class="ic" d="m15.24 8.998 3.656-3.073v15.81H2.482C1.11 21.735 0 20.609 0 19.223V6.944l7.58 6.38a2.186 2.186 0 0 0 2.871-.042l4.792-4.284h-.003zm-5.456 3.538 1.809-1.616a2.438 2.438 0 0 1-1.178-.533L.905 2.395A.552.552 0 0 0 0 2.826v2.811l8.226 6.923a1.186 1.186 0 0 0 1.558-.024zM23.871 2.463a.551.551 0 0 0-.776-.068l-3.199 2.688v16.653h1.623c1.371 0 2.481-1.127 2.481-2.513V2.824a.551.551 0 0 0-.129-.36z"/></g><text class="tx" x="51" y="25" font-size="13" dominant-baseline="central">email</text></svg>