<svg xmlns="http://www.w3.org/2000/svg" viewBox="0 0 116 36" width="116" height="36" font-family="ui-monospace, 'SF Mono', SFMono-Regular, Menlo, Consolas, 'Liberation Mono', monospace" role="img" aria-label="linkedin"><!-- @atikulmunna --><metadata>@atikulmunna</metadata><title>@atikulmunna · linkedin</title><style>.pill{fill:#050507}.ic{fill:#c4b5fd}.tx{fill:#c4b5fd;font-weight:700}.star{fill:#7c3aed}@media(prefers-color-scheme:dark){.pill{fill:#1c1730}.star{fill:#a78bfa}}</style><clipPath id="pc"><rect x="0" y="0" width="116" height="36" rx="8"/></clipPath><rect class="pill" x="0" y="0" width="116" height="36" rx="8"/><g clip-path="url(#pc)"><circle class="star" cx="12" cy="18" r="1.62" opacity="0.5"><animate attributeName="cy" values="-8;44" dur="9.4s" begin="-9.3s" repeatCount="indefinite"/></circle><circle class="star" cx="17" cy="17" r="3.06" opacity="0.85"><animate attributeName="cy" values="-8;44" dur="4.7s" begin="-1.0s" repeatCount="indefinite"/></circle><circle class="star" cx="43" cy="2" r="1.62" opacity="0.55"><animate attributeName="cy" values="-8;44" dur="8.6s" begin="-3.7s" repeatCount="indefinite"/></circle><circle class="star" cx="90" cy="5" r="1.62" opacity="0.6"><animate attributeName="cy" values="-8;44" dur="8.0s" begin="-5.4s" repeatCount="indefinite"/></circle><circle class="star" cx="90" cy="12" r="1.62" opacity="0.58"><animate attributeName="cy" values="-8;44" dur="8.3s" begin="-3.1s" repeatCount="indefinite"/></circle><circle class="star" cx="70" cy="30" r="3.06" opacity="0.57"><animate attributeName="cy" values="-8;44" dur="8.4s" begin="-1.5s" repeatCount="indefinite"/></circle><circle class="star" cx="36" cy="32" r="1.62" opacity="0.43"><animate attributeName="cy" values="-8;44" dur="10.3s" begin="-2.1s" repeatCount="indefinite"/></circle><circle class="star" cx="10" cy="21" r="3.06" opacity="0.88"><animate attributeName="cy" values="-8;44" dur="4.3s" begin="-1.6s" repeatCount="indefinite"/></circle><circle class="star" cx="34" cy="8" r="1.62" opacity="0.54"><animate attributeName="cy" values="-8;44" dur="8.8s" begin="-0.8s" repeatCount="indefinite"/></circle><circle class="star" cx="78" cy="21" r="1.62" opacity="0.63"><animate attributeName="cy" values="-8;44" dur="7.6s" begin="-0.7s" repeatCount="indefinite"/></circle><circle class="star" cx="67" cy="10" r="1.62" opacity="0.45"><animate attributeName="cy" values="-8;44" dur="10.0s" begin="-6.4s" repeatCount="indefinite"/></circle><circle class="star" cx="92" cy="21" r="3.06" opacity="0.86"><animate attributeName="cy" values="-8;44" dur="4.5s" begin="-4.4s" repeatCount="indefinite"/></circle><circle class="star" cx="104" cy="25" r="3.06" opacity="0.67"><animate attributeName="cy" values="-8;44" dur="7.1s" begin="-2.3s" repeatCount="indefinite"/></circle><circle class="star" cx="102" cy="14" r="1.62" opacity="0.6"><animate attributeName="cy" values="-8;44" dur="8.0s" begin="-4.7s" repeatCount="indefinite"/></circle><circle class="star" cx="21" cy="24" r="3.06" opacity="0.9"><animate attributeName="cy" values="-8;44" dur="4.1s" begin="-2.5s" repeatCount="indefinite"/></circle><circle class="star" cx="42" cy="13" r="1.62" opacity="0.65"><animate attributeName="cy" values="-8;44" dur="7.4s" begin="-4.8s" repeatCount="indefinite"/></circle><circle class="star" cx="93" cy="19" r="1.62" opacity="0.85"><animate attributeName="cy" values="-8;44" dur="4.6s" begin="-0.9s" repeatCount="indefinite"/></circle><circle class="star" cx="5" cy="11" r="1.62" opacity="0.66"><animate attributeName="cy" values="-8;44" dur="7.2s" begin="-6.5s" repeatCount="indefinite"/></circle><circle class="star" cx="110" cy="25" r="3.06" opacity="0.61"><animate attributeName="cy" values="-8;44" dur="7.9s" begin="-5.4s" repeatCount="indefinite"/></circle><circle class="star" cx="67" cy="3" r="1.62" opacity="0.57"><animate attributeName="cy" values="-8;44" dur="8.3s" begin="-2.1s" repeatCount="indefinite"/></circle><circle class="star" cx="3" cy="14" r="3.06" opacity="0.87"><animate attributeName="cy" values="-8;44" dur="4.4s" begin="-4.0s" repeatCount="indefinite"/></circle><circle class="star" cx="21" cy="22" r="1.62" opacity="0.69"><animate attributeName="cy" values="-8;44" dur="6.8s" begin="-2.5s" repeatCount="indefinite"/></circle><circle class="star" cx="10" cy="14" r="3.06" opacity="0.45"><animate attributeName="cy" values="-8;44" dur="10.0s" begin="-9.3s" repeatCount="indefinite"/></circle><circle class="star" cx="11" cy="1" r="1.62" opacity="0.7"><animate attributeName="cy" values="-8;44" dur="6.6s" begin="-2.0s" repeatCount="indefinite"/></circle><circle class="star" cx="89" cy="32" r="3.06" opacity="0.6"><animate attributeName="cy" values="-8;44" dur="7.9s" begin="-3.9s" repeatCount="indefinite"/></circle><circle class="star" cx="78" cy="6" r="3.06" opacity="0.71"><animate attributeName="cy" values="-8;44" dur="6.5s" begin="-4.2s" repeatCount="indefinite"/></circle><circle class="star" cx="52" cy="4" r="1.62" opacity="0.66"><animate attributeName="cy" values="-8;44" dur="7.2s" begin="-4.3s" repeatCount="indefinite"/></circle><circle class="star" cx="91" cy="17" r="1.62" opacity="0.48"><animate attributeName="cy" values="-8;44" dur="9.6s" begin="-7.6s" repeatCount="indefinite"/></circle><circle class="star" cx="5" cy="28" r="1.62" opacity="0.46"><animate attributeName="cy" values="-8;44" dur="9.9s" begin="-4.2s" repeatCount="indefinite"/></circle></g><g transform="translate(13,10.5) scale(0.6250)"><path class="ic" d="M20.447 20.452h-3.554v-5.569c0-1.328-.027-3.037-1.852-3.037-1.853 0-2.136 1.445-2.136 2.939v5.667H9.351V9h3.414v1.561h.046c.477-.9 1.637-1.85 3.37-1.85 3.601 0 4.267 2.37 4.267 5.455v6.286zM5.337 7.433a2.062 2.062 0 01-2.063-2.065 2.064 2.064 0 112.063 2.065zm1.782 13.019H3.555V9h3.564v11.452zM22.225 0H1.771C.792 0 0 .774 0 1.729v20.542C0 23.227.792 24 1.771 24h20.451C23.2 24 24 23.227 24 22.271V1.729C24 .774 23.2 0 22.222 0h.003z"/></g><text class="tx" x="37" y="18" font-size="13" dominant-baseline="central">linkedin</text></svg>