<svg xmlns="http://www.w3.org/2000/svg" viewBox="0 0 1000 64" width="100%" font-family="ui-monospace, 'SF Mono', SFMono-Regular, Menlo, Consolas, 'Liberation Mono', monospace" role="img" aria-label="socials">
<!-- @atikulmunna --><metadata>Created by @atikulmunna (github.com/atikulmunna).</metadata><title>@atikulmunna · socials</title>
<style>.pill{fill:#050507}.ic{fill:#c4b5fd}.tx{fill:#c4b5fd;font-weight:700}.star{fill:#7c3aed}@media(prefers-color-scheme:dark){.pill{fill:#1c1730}.star{fill:#a78bfa}}</style>
<circle class="star" cx="326" cy="12" r="1.7" opacity="0.59"><animate attributeName="cy" values="-4;68" dur="6.2s" begin="-3.3s" repeatCount="indefinite"/></circle><circle class="star" cx="367" cy="7" r="1.7" opacity="0.52"><animate attributeName="cy" values="-4;68" dur="7.2s" begin="-3.1s" repeatCount="indefinite"/></circle><circle class="star" cx="75" cy="9" r="0.9" opacity="0.48"><animate attributeName="cy" values="-4;68" dur="7.7s" begin="-1.0s" repeatCount="indefinite"/></circle><circle class="star" cx="227" cy="39" r="0.9" opacity="0.73"><animate attributeName="cy" values="-4;68" dur="4.3s" begin="-1.7s" repeatCount="indefinite"/></circle><circle class="star" cx="971" cy="7" r="0.9" opacity="0.69"><animate attributeName="cy" values="-4;68" dur="4.9s" begin="-0.7s" repeatCount="indefinite"/></circle><circle class="star" cx="122" cy="21" r="1.7" opacity="0.67"><animate attributeName="cy" values="-4;68" dur="5.2s" begin="-3.0s" repeatCount="indefinite"/></circle><circle class="star" cx="637" cy="25" r="1.7" opacity="0.54"><animate attributeName="cy" values="-4;68" dur="6.9s" begin="-0.4s" repeatCount="indefinite"/></circle><circle class="star" cx="209" cy="42" r="0.9" opacity="0.49"><animate attributeName="cy" values="-4;68" dur="7.7s" begin="-4.5s" repeatCount="indefinite"/></circle><circle class="star" cx="454" cy="21" r="0.9" opacity="0.66"><animate attributeName="cy" values="-4;68" dur="5.3s" begin="-1.3s" repeatCount="indefinite"/></circle><circle class="star" cx="574" cy="33" r="0.9" opacity="0.7"><animate attributeName="cy" values="-4;68" dur="4.8s" begin="-1.4s" repeatCount="indefinite"/></circle><circle class="star" cx="974" cy="11" r="0.9" opacity="0.48"><animate attributeName="cy" values="-4;68" dur="7.7s" begin="-1.2s" repeatCount="indefinite"/></circle><circle class="star" cx="489" cy="6" r="0.9" opacity="0.6"><animate attributeName="cy" values="-4;68" dur="6.1s" begin="-3.5s" repeatCount="indefinite"/></circle><circle class="star" cx="871" cy="22" r="0.9" opacity="0.61"><animate attributeName="cy" values="-4;68" dur="6.0s" begin="-3.5s" repeatCount="indefinite"/></circle><circle class="star" cx="457" cy="51" r="0.9" opacity="0.73"><animate attributeName="cy" values="-4;68" dur="4.4s" begin="-2.9s" repeatCount="indefinite"/></circle><circle class="star" cx="66" cy="43" r="0.9" opacity="0.59"><animate attributeName="cy" values="-4;68" dur="6.3s" begin="-5.1s" repeatCount="indefinite"/></circle><circle class="star" cx="287" cy="26" r="1.7" opacity="0.6"><animate attributeName="cy" values="-4;68" dur="6.1s" begin="-2.8s" repeatCount="indefinite"/></circle><circle class="star" cx="172" cy="11" r="0.9" opacity="0.31"><animate attributeName="cy" values="-4;68" dur="10.0s" begin="-1.3s" repeatCount="indefinite"/></circle><circle class="star" cx="251" cy="26" r="1.7" opacity="0.7"><animate attributeName="cy" values="-4;68" dur="4.8s" begin="-2.2s" repeatCount="indefinite"/></circle><circle class="star" cx="549" cy="53" r="0.9" opacity="0.67"><animate attributeName="cy" values="-4;68" dur="5.2s" begin="-1.4s" repeatCount="indefinite"/></circle><circle class="star" cx="416" cy="24" r="0.9" opacity="0.7"><animate attributeName="cy" values="-4;68" dur="4.7s" begin="-0.7s" repeatCount="indefinite"/></circle><circle class="star" cx="180" cy="17" r="0.9" opacity="0.39"><animate attributeName="cy" values="-4;68" dur="8.9s" begin="-5.2s" repeatCount="indefinite"/></circle><circle class="star" cx="266" cy="4" r="0.9" opacity="0.48"><animate attributeName="cy" values="-4;68" dur="7.7s" begin="-4.4s" repeatCount="indefinite"/></circle><circle class="star" cx="948" cy="43" r="0.9" opacity="0.53"><animate attributeName="cy" values="-4;68" dur="7.1s" begin="-4.8s" repeatCount="indefinite"/></circle><circle class="star" cx="59" cy="54" r="0.9" opacity="0.65"><animate attributeName="cy" values="-4;68" dur="5.4s" begin="-4.3s" repeatCount="indefinite"/></circle><circle class="star" cx="394" cy="26" r="0.9" opacity="0.33"><animate attributeName="cy" values="-4;68" dur="9.7s" begin="-0.6s" repeatCount="indefinite"/></circle><circle class="star" cx="73" cy="16" r="0.9" opacity="0.36"><animate attributeName="cy" values="-4;68" dur="9.4s" begin="-0.5s" repeatCount="indefinite"/></circle><circle class="star" cx="6" cy="12" r="0.9" opacity="0.33"><animate attributeName="cy" values="-4;68" dur="9.8s" begin="-0.2s" repeatCount="indefinite"/></circle><circle class="star" cx="870" cy="38" r="0.9" opacity="0.35"><animate attributeName="cy" values="-4;68" dur="9.4s" begin="-3.3s" repeatCount="indefinite"/></circle><circle class="star" cx="366" cy="11" r="0.9" opacity="0.69"><animate attributeName="cy" values="-4;68" dur="5.0s" begin="-2.3s" repeatCount="indefinite"/></circle><circle class="star" cx="484" cy="9" r="0.9" opacity="0.33"><animate attributeName="cy" values="-4;68" dur="9.7s" begin="-2.6s" repeatCount="indefinite"/></circle><circle class="star" cx="825" cy="13" r="0.9" opacity="0.29"><animate attributeName="cy" values="-4;68" dur="10.3s" begin="-5.4s" repeatCount="indefinite"/></circle><circle class="star" cx="151" cy="34" r="0.9" opacity="0.29"><animate attributeName="cy" values="-4;68" dur="10.2s" begin="-10.0s" repeatCount="indefinite"/></circle><circle class="star" cx="859" cy="43" r="0.9" opacity="0.41"><animate attributeName="cy" values="-4;68" dur="8.7s" begin="-1.5s" repeatCount="indefinite"/></circle><circle class="star" cx="769" cy="34" r="0.9" opacity="0.65"><animate attributeName="cy" values="-4;68" dur="5.4s" begin="-1.2s" repeatCount="indefinite"/></circle><circle class="star" cx="808" cy="59" r="0.9" opacity="0.69"><animate attributeName="cy" values="-4;68" dur="4.9s" begin="-4.0s" repeatCount="indefinite"/></circle><circle class="star" cx="737" cy="17" r="0.9" opacity="0.53"><animate attributeName="cy" values="-4;68" dur="7.1s" begin="-0.2s" repeatCount="indefinite"/></circle><circle class="star" cx="34" cy="20" r="0.9" opacity="0.4"><animate attributeName="cy" values="-4;68" dur="8.7s" begin="-8.4s" repeatCount="indefinite"/></circle><circle class="star" cx="448" cy="56" r="0.9" opacity="0.75"><animate attributeName="cy" values="-4;68" dur="4.1s" begin="-1.5s" repeatCount="indefinite"/></circle><circle class="star" cx="224" cy="17" r="1.7" opacity="0.37"><animate attributeName="cy" values="-4;68" dur="9.1s" begin="-5.7s" repeatCount="indefinite"/></circle><circle class="star" cx="896" cy="51" r="0.9" opacity="0.51"><animate attributeName="cy" values="-4;68" dur="7.3s" begin="-5.9s" repeatCount="indefinite"/></circle><circle class="star" cx="90" cy="41" r="0.9" opacity="0.72"><animate attributeName="cy" values="-4;68" dur="4.6s" begin="-3.4s" repeatCount="indefinite"/></circle><circle class="star" cx="478" cy="14" r="0.9" opacity="0.66"><animate attributeName="cy" values="-4;68" dur="5.3s" begin="-4.3s" repeatCount="indefinite"/></circle><circle class="star" cx="966" cy="26" r="0.9" opacity="0.47"><animate attributeName="cy" values="-4;68" dur="7.8s" begin="-5.7s" repeatCount="indefinite"/></circle><circle class="star" cx="174" cy="11" r="0.9" opacity="0.35"><animate attributeName="cy" values="-4;68" dur="9.4s" begin="-7.6s" repeatCount="indefinite"/></circle><circle class="star" cx="150" cy="50" r="0.9" opacity="0.75"><animate attributeName="cy" values="-4;68" dur="4.1s" begin="-1.4s" repeatCount="indefinite"/></circle><circle class="star" cx="548" cy="11" r="0.9" opacity="0.29"><animate attributeName="cy" values="-4;68" dur="10.3s" begin="-6.7s" repeatCount="indefinite"/></circle><circle class="star" cx="526" cy="56" r="0.9" opacity="0.49"><animate attributeName="cy" values="-4;68" dur="7.6s" begin="-6.3s" repeatCount="indefinite"/></circle><circle class="star" cx="215" cy="18" r="0.9" opacity="0.42"><animate attributeName="cy" values="-4;68" dur="8.5s" begin="-5.0s" repeatCount="indefinite"/></circle><circle class="star" cx="262" cy="27" r="0.9" opacity="0.34"><animate attributeName="cy" values="-4;68" dur="9.6s" begin="-3.4s" repeatCount="indefinite"/></circle><circle class="star" cx="459" cy="37" r="0.9" opacity="0.71"><animate attributeName="cy" values="-4;68" dur="4.6s" begin="-4.2s" repeatCount="indefinite"/></circle><circle class="star" cx="502" cy="34" r="1.7" opacity="0.53"><animate attributeName="cy" values="-4;68" dur="7.0s" begin="-3.1s" repeatCount="indefinite"/></circle><circle class="star" cx="187" cy="4" r="1.7" opacity="0.66"><animate attributeName="cy" values="-4;68" dur="5.3s" begin="-2.5s" repeatCount="indefinite"/></circle><circle class="star" cx="722" cy="35" r="0.9" opacity="0.44"><animate attributeName="cy" values="-4;68" dur="8.3s" begin="-4.6s" repeatCount="indefinite"/></circle><circle class="star" cx="781" cy="10" r="0.9" opacity="0.55"><animate attributeName="cy" values="-4;68" dur="6.8s" begin="-1.9s" repeatCount="indefinite"/></circle><circle class="star" cx="769" cy="32" r="0.9" opacity="0.55"><animate attributeName="cy" values="-4;68" dur="6.8s" begin="-6.2s" repeatCount="indefinite"/></circle><circle class="star" cx="444" cy="38" r="0.9" opacity="0.52"><animate attributeName="cy" values="-4;68" dur="7.2s" begin="-5.0s" repeatCount="indefinite"/></circle><circle class="star" cx="453" cy="34" r="0.9" opacity="0.51"><animate attributeName="cy" values="-4;68" dur="7.3s" begin="-5.1s" repeatCount="indefinite"/></circle><circle class="star" cx="872" cy="57" r="0.9" opacity="0.4"><animate attributeName="cy" values="-4;68" dur="8.7s" begin="-8.2s" repeatCount="indefinite"/></circle><circle class="star" cx="836" cy="12" r="0.9" opacity="0.34"><animate attributeName="cy" values="-4;68" dur="9.6s" begin="-0.7s" repeatCount="indefinite"/></circle><circle class="star" cx="244" cy="8" r="0.9" opacity="0.6"><animate attributeName="cy" values="-4;68" dur="6.1s" begin="-5.5s" repeatCount="indefinite"/></circle><circle class="star" cx="159" cy="44" r="1.7" opacity="0.6"><animate attributeName="cy" values="-4;68" dur="6.2s" begin="-5.5s" repeatCount="indefinite"/></circle><circle class="star" cx="962" cy="16" r="0.9" opacity="0.74"><animate attributeName="cy" values="-4;68" dur="4.3s" begin="-2.1s" repeatCount="indefinite"/></circle><circle class="star" cx="984" cy="51" r="0.9" opacity="0.36"><animate attributeName="cy" values="-4;68" dur="9.4s" begin="-4.8s" repeatCount="indefinite"/></circle><circle class="star" cx="341" cy="15" r="0.9" opacity="0.43"><animate attributeName="cy" values="-4;68" dur="8.4s" begin="-0.2s" repeatCount="indefinite"/></circle><circle class="star" cx="553" cy="29" r="0.9" opacity="0.29"><animate attributeName="cy" values="-4;68" dur="10.3s" begin="-6.4s" repeatCount="indefinite"/></circle><circle class="star" cx="512" cy="8" r="0.9" opacity="0.75"><animate attributeName="cy" values="-4;68" dur="4.1s" begin="-4.0s" repeatCount="indefinite"/></circle><circle class="star" cx="110" cy="19" r="0.9" opacity="0.3"><animate attributeName="cy" values="-4;68" dur="10.1s" begin="-2.7s" repeatCount="indefinite"/></circle><circle class="star" cx="134" cy="28" r="0.9" opacity="0.72"><animate attributeName="cy" values="-4;68" dur="4.6s" begin="-1.2s" repeatCount="indefinite"/></circle><circle class="star" cx="154" cy="55" r="0.9" opacity="0.55"><animate attributeName="cy" values="-4;68" dur="6.7s" begin="-0.6s" repeatCount="indefinite"/></circle><circle class="star" cx="63" cy="43" r="1.7" opacity="0.48"><animate attributeName="cy" values="-4;68" dur="7.7s" begin="-7.2s" repeatCount="indefinite"/></circle><circle class="star" cx="633" cy="49" r="0.9" opacity="0.32"><animate attributeName="cy" values="-4;68" dur="9.9s" begin="-0.7s" repeatCount="indefinite"/></circle><circle class="star" cx="858" cy="29" r="0.9" opacity="0.44"><animate attributeName="cy" values="-4;68" dur="8.2s" begin="-7.6s" repeatCount="indefinite"/></circle><circle class="star" cx="271" cy="11" r="0.9" opacity="0.53"><animate attributeName="cy" values="-4;68" dur="7.0s" begin="-0.8s" repeatCount="indefinite"/></circle><circle class="star" cx="166" cy="7" r="0.9" opacity="0.38"><animate attributeName="cy" values="-4;68" dur="9.1s" begin="-2.8s" repeatCount="indefinite"/></circle><circle class="star" cx="756" cy="20" r="1.7" opacity="0.52"><animate attributeName="cy" values="-4;68" dur="7.2s" begin="-2.5s" repeatCount="indefinite"/></circle><circle class="star" cx="24" cy="18" r="0.9" opacity="0.29"><animate attributeName="cy" values="-4;68" dur="10.3s" begin="-5.7s" repeatCount="indefinite"/></circle><circle class="star" cx="193" cy="31" r="1.7" opacity="0.73"><animate attributeName="cy" values="-4;68" dur="4.4s" begin="-3.6s" repeatCount="indefinite"/></circle><circle class="star" cx="433" cy="32" r="0.9" opacity="0.68"><animate attributeName="cy" values="-4;68" dur="5.1s" begin="-2.6s" repeatCount="indefinite"/></circle>
<clipPath id="pc0"><rect x="250" y="14" width="124" height="36" rx="8"/></clipPath>
<rect class="pill" x="250" y="14" width="124" height="36" rx="8"/>
<g clip-path="url(#pc0)"><circle class="star" cx="288" cy="31" r="1.26" opacity="0.26"><animate attributeName="cy" values="6;58" dur="6.5s" begin="-2.2s" repeatCount="indefinite"/></circle><circle class="star" cx="256" cy="47" r="1.26" opacity="0.31"><animate attributeName="cy" values="6;58" dur="4.9s" begin="-4.4s" repeatCount="indefinite"/></circle><circle class="star" cx="256" cy="16" r="2.38" opacity="0.28"><animate attributeName="cy" values="6;58" dur="5.9s" begin="-3.8s" repeatCount="indefinite"/></circle><circle class="star" cx="256" cy="14" r="1.26" opacity="0.16"><animate attributeName="cy" values="6;58" dur="10.0s" begin="-6.8s" repeatCount="indefinite"/></circle><circle class="star" cx="333" cy="48" r="1.26" opacity="0.3"><animate attributeName="cy" values="6;58" dur="5.3s" begin="-2.6s" repeatCount="indefinite"/></circle><circle class="star" cx="373" cy="16" r="1.26" opacity="0.19"><animate attributeName="cy" values="6;58" dur="9.0s" begin="-4.7s" repeatCount="indefinite"/></circle><circle class="star" cx="335" cy="38" r="1.26" opacity="0.3"><animate attributeName="cy" values="6;58" dur="5.2s" begin="-0.3s" repeatCount="indefinite"/></circle><circle class="star" cx="264" cy="26" r="1.26" opacity="0.31"><animate attributeName="cy" values="6;58" dur="4.9s" begin="-0.9s" repeatCount="indefinite"/></circle><circle class="star" cx="250" cy="42" r="2.38" opacity="0.31"><animate attributeName="cy" values="6;58" dur="5.1s" begin="-2.4s" repeatCount="indefinite"/></circle><circle class="star" cx="311" cy="41" r="1.26" opacity="0.15"><animate attributeName="cy" values="6;58" dur="10.3s" begin="-3.3s" repeatCount="indefinite"/></circle><circle class="star" cx="354" cy="45" r="2.38" opacity="0.31"><animate attributeName="cy" values="6;58" dur="5.2s" begin="-3.9s" repeatCount="indefinite"/></circle></g>
<g transform="translate(262,24) scale(0.6250)"><path class="ic" d="M12 12c2.21 0 4-1.79 4-4s-1.79-4-4-4-4 1.79-4 4 1.79 4 4 4zm0 2c-2.67 0-8 1.34-8 4v2h16v-2c0-2.66-5.33-4-8-4z"/></g>
<text class="tx" x="286" y="32" font-size="13" dominant-baseline="central">portfolio</text>
<clipPath id="pc1"><rect x="394" y="14" width="116" height="36" rx="8"/></clipPath>
<rect class="pill" x="394" y="14" width="116" height="36" rx="8"/>
<g clip-path="url(#pc1)"><circle class="star" cx="444" cy="39" r="1.26" opacity="0.3"><animate attributeName="cy" values="6;58" dur="5.3s" begin="-1.2s" repeatCount="indefinite"/></circle><circle class="star" cx="499" cy="31" r="1.26" opacity="0.26"><animate attributeName="cy" values="6;58" dur="6.7s" begin="-2.6s" repeatCount="indefinite"/></circle><circle class="star" cx="444" cy="31" r="1.26" opacity="0.15"><animate attributeName="cy" values="6;58" dur="10.3s" begin="-5.9s" repeatCount="indefinite"/></circle><circle class="star" cx="471" cy="17" r="1.26" opacity="0.28"><animate attributeName="cy" values="6;58" dur="6.1s" begin="-0.9s" repeatCount="indefinite"/></circle><circle class="star" cx="452" cy="15" r="1.26" opacity="0.3"><animate attributeName="cy" values="6;58" dur="5.3s" begin="-4.6s" repeatCount="indefinite"/></circle><circle class="star" cx="444" cy="20" r="2.38" opacity="0.33"><animate attributeName="cy" values="6;58" dur="4.3s" begin="-1.4s" repeatCount="indefinite"/></circle><circle class="star" cx="505" cy="43" r="1.26" opacity="0.2"><animate attributeName="cy" values="6;58" dur="8.7s" begin="-2.0s" repeatCount="indefinite"/></circle><circle class="star" cx="508" cy="34" r="1.26" opacity="0.18"><animate attributeName="cy" values="6;58" dur="9.4s" begin="-1.2s" repeatCount="indefinite"/></circle><circle class="star" cx="394" cy="47" r="1.26" opacity="0.21"><animate attributeName="cy" values="6;58" dur="8.5s" begin="-6.1s" repeatCount="indefinite"/></circle><circle class="star" cx="506" cy="39" r="2.38" opacity="0.22"><animate attributeName="cy" values="6;58" dur="8.0s" begin="-5.5s" repeatCount="indefinite"/></circle></g>
<g transform="translate(406,24) scale(0.6250)"><path class="ic" d="M20.447 20.452h-3.554v-5.569c0-1.328-.027-3.037-1.852-3.037-1.853 0-2.136 1.445-2.136 2.939v5.667H9.351V9h3.414v1.561h.046c.477-.9 1.637-1.85 3.37-1.85 3.601 0 4.267 2.37 4.267 5.455v6.286zM5.337 7.433a2.062 2.062 0 01-2.063-2.065 2.064 2.064 0 112.063 2.065zm1.782 13.019H3.555V9h3.564v11.452zM22.225 0H1.771C.792 0 0 .774 0 1.729v20.542C0 23.227.792 24 1.771 24h20.451C23.2 24 24 23.227 24 22.271V1.729C24 .774 23.2 0 22.222 0h.003z"/></g>
<text class="tx" x="430" y="32" font-size="13" dominant-baseline="central">linkedin</text>
<clipPath id="pc2"><rect x="530" y="14" width="93" height="36" rx="8"/></clipPath>
<rect class="pill" x="530" y="14" width="93" height="36" rx="8"/>
<g clip-path="url(#pc2)"><circle class="star" cx="577" cy="14" r="1.26" opacity="0.18"><animate attributeName="cy" values="6;58" dur="9.4s" begin="-8.8s" repeatCount="indefinite"/></circle><circle class="star" cx="610" cy="34" r="2.38" opacity="0.17"><animate attributeName="cy" values="6;58" dur="9.5s" begin="-0.9s" repeatCount="indefinite"/></circle><circle class="star" cx="569" cy="17" r="1.26" opacity="0.28"><animate attributeName="cy" values="6;58" dur="6.1s" begin="-4.1s" repeatCount="indefinite"/></circle><circle class="star" cx="591" cy="43" r="1.26" opacity="0.27"><animate attributeName="cy" values="6;58" dur="6.5s" begin="-1.8s" repeatCount="indefinite"/></circle><circle class="star" cx="573" cy="43" r="2.38" opacity="0.18"><animate attributeName="cy" values="6;58" dur="9.4s" begin="-1.7s" repeatCount="indefinite"/></circle><circle class="star" cx="618" cy="45" r="1.26" opacity="0.26"><animate attributeName="cy" values="6;58" dur="6.6s" begin="-4.1s" repeatCount="indefinite"/></circle><circle class="star" cx="541" cy="48" r="1.26" opacity="0.19"><animate attributeName="cy" values="6;58" dur="8.9s" begin="-8.4s" repeatCount="indefinite"/></circle><circle class="star" cx="541" cy="36" r="2.38" opacity="0.17"><animate attributeName="cy" values="6;58" dur="9.7s" begin="-6.0s" repeatCount="indefinite"/></circle></g>
<g transform="translate(542,24) scale(0.6250)"><path class="ic" d="m15.24 8.998 3.656-3.073v15.81H2.482C1.11 21.735 0 20.609 0 19.223V6.944l7.58 6.38a2.186 2.186 0 0 0 2.871-.042l4.792-4.284h-.003zm-5.456 3.538 1.809-1.616a2.438 2.438 0 0 1-1.178-.533L.905 2.395A.552.552 0 0 0 0 2.826v2.811l8.226 6.923a1.186 1.186 0 0 0 1.558-.024zM23.871 2.463a.551.551 0 0 0-.776-.068l-3.199 2.688v16.653h1.623c1.371 0 2.481-1.127 2.481-2.513V2.824a.551.551 0 0 0-.129-.36z"/></g>
<text class="tx" x="566" y="32" font-size="13" dominant-baseline="central">email</text>
<clipPath id="pc3"><rect x="642" y="14" width="108" height="36" rx="8"/></clipPath>
<rect class="pill" x="642" y="14" width="108" height="36" rx="8"/>
<g clip-path="url(#pc3)"><circle class="star" cx="714" cy="33" r="1.26" opacity="0.28"><animate attributeName="cy" values="6;58" dur="5.9s" begin="-5.2s" repeatCount="indefinite"/></circle><circle class="star" cx="687" cy="34" r="1.26" opacity="0.21"><animate attributeName="cy" values="6;58" dur="8.3s" begin="-2.5s" repeatCount="indefinite"/></circle><circle class="star" cx="657" cy="21" r="1.26" opacity="0.24"><animate attributeName="cy" values="6;58" dur="7.3s" begin="-4.8s" repeatCount="indefinite"/></circle><circle class="star" cx="729" cy="18" r="1.26" opacity="0.21"><animate attributeName="cy" values="6;58" dur="8.2s" begin="-3.9s" repeatCount="indefinite"/></circle><circle class="star" cx="679" cy="27" r="2.38" opacity="0.2"><animate attributeName="cy" values="6;58" dur="8.7s" begin="-1.9s" repeatCount="indefinite"/></circle><circle class="star" cx="740" cy="16" r="1.26" opacity="0.27"><animate attributeName="cy" values="6;58" dur="6.3s" begin="-3.6s" repeatCount="indefinite"/></circle><circle class="star" cx="678" cy="27" r="1.26" opacity="0.27"><animate attributeName="cy" values="6;58" dur="6.3s" begin="-0.7s" repeatCount="indefinite"/></circle><circle class="star" cx="743" cy="46" r="1.26" opacity="0.15"><animate attributeName="cy" values="6;58" dur="10.2s" begin="-5.5s" repeatCount="indefinite"/></circle><circle class="star" cx="698" cy="45" r="1.26" opacity="0.23"><animate attributeName="cy" values="6;58" dur="7.8s" begin="-0.2s" repeatCount="indefinite"/></circle></g>
<g transform="translate(656,24) scale(0.6250)"><path class="ic" d="M20.317 4.3698a19.7913 19.7913 0 00-4.8851-1.5152.0741.0741 0 00-.0785.0371c-.211.3753-.4447.8648-.6083 1.2495-1.8447-.2762-3.68-.2762-5.4868 0-.1636-.3933-.4058-.8742-.6177-1.2495a.077.077 0 00-.0785-.037 19.7363 19.7363 0 00-4.8852 1.515.0699.0699 0 00-.0321.0277C.5334 9.0458-.319 13.5799.0992 18.0578a.0824.0824 0 00.0312.0561c2.0528 1.5076 4.0413 2.4228 5.9929 3.0294a.0777.0777 0 00.0842-.0276c.4616-.6304.8731-1.2952 1.226-1.9942a.076.076 0 00-.0416-.1057c-.6528-.2476-1.2743-.5495-1.8722-.8923a.077.077 0 01-.0076-.1277c.1258-.0943.2517-.1923.3718-.2914a.0743.0743 0 01.0776-.0105c3.9278 1.7933 8.18 1.7933 12.0614 0a.0739.0739 0 01.0785.0095c.1202.099.246.1981.3728.2924a.077.077 0 01-.0066.1276 12.2986 12.2986 0 01-1.873.8914.0766.0766 0 00-.0407.1067c.3604.698.7719 1.3628 1.225 1.9932a.076.076 0 00.0842.0286c1.961-.6067 3.9495-1.5219 6.0023-3.0294a.077.077 0 00.0313-.0552c.5004-5.177-.8382-9.6739-3.5485-13.6604a.061.061 0 00-.0312-.0286zM8.02 15.3312c-1.1825 0-2.1569-1.0857-2.1569-2.419 0-1.3332.9555-2.4189 2.157-2.4189 1.2108 0 2.1757 1.0952 2.1568 2.419 0 1.3332-.9555 2.4189-2.1569 2.4189zm7.9748 0c-1.1825 0-2.1569-1.0857-2.1569-2.419 0-1.3332.9554-2.4189 2.1569-2.4189 1.2108 0 2.1757 1.0952 2.1568 2.419 0 1.3332-.946 2.4189-2.1568 2.4189Z"/></g>
<text class="tx" x="680" y="32" font-size="13" dominant-baseline="central">discord</text>
</svg>