<svg xmlns="http://www.w3.org/2000/svg" viewBox="0 0 93 36" width="93" height="36" font-family="ui-monospace, 'SF Mono', SFMono-Regular, Menlo, Consolas, 'Liberation Mono', monospace" role="img" aria-label="email"><!-- @atikulmunna --><metadata>@atikulmunna</metadata><title>@atikulmunna · email</title><style>.pill{fill:#050507}.ic{fill:#c4b5fd}.tx{fill:#c4b5fd;font-weight:700}@media(prefers-color-scheme:dark){.pill{fill:#1c1730}}</style><rect class="pill" x="0" y="0" width="93" height="36" rx="8"/><g transform="translate(13,10.5) scale(0.6250)"><path class="ic" d="m15.24 8.998 3.656-3.073v15.81H2.482C1.11 21.735 0 20.609 0 19.223V6.944l7.58 6.38a2.186 2.186 0 0 0 2.871-.042l4.792-4.284h-.003zm-5.456 3.538 1.809-1.616a2.438 2.438 0 0 1-1.178-.533L.905 2.395A.552.552 0 0 0 0 2.826v2.811l8.226 6.923a1.186 1.186 0 0 0 1.558-.024zM23.871 2.463a.551.551 0 0 0-.776-.068l-3.199 2.688v16.653h1.623c1.371 0 2.481-1.127 2.481-2.513V2.824a.551.551 0 0 0-.129-.36z"/></g><text class="tx" x="37" y="18" font-size="13" dominant-baseline="central">email</text></svg>