<svg xmlns="http://www.w3.org/2000/svg" viewBox="0 0 144 50" width="144" height="50" font-family="ui-monospace, 'SF Mono', SFMono-Regular, Menlo, Consolas, 'Liberation Mono', monospace" role="img" aria-label="linkedin"><!-- @atikulmunna --><metadata>@atikulmunna</metadata><title>@atikulmunna · linkedin</title><style>.pill{fill:#050507}.ic{fill:#c4b5fd}.tx{fill:#c4b5fd;font-weight:700}.star{fill:#7c3aed}@media(prefers-color-scheme:dark){.pill{fill:#1c1730}.star{fill:#a78bfa}}</style><clipPath id="pc"><rect x="14" y="7" width="116" height="36" rx="8"/></clipPath><circle class="star" cx="15" cy="24" r="0.9" opacity="0.34"><animate attributeName="cy" values="-8;58" dur="15.9s" begin="-15.8s" repeatCount="indefinite"/></circle><circle class="star" cx="21" cy="23" r="1.7" opacity="0.66"><animate attributeName="cy" values="-8;58" dur="8.0s" begin="-1.7s" repeatCount="indefinite"/></circle><circle class="star" cx="54" cy="3" r="0.9" opacity="0.39"><animate attributeName="cy" values="-8;58" dur="14.6s" begin="-6.4s" repeatCount="indefinite"/></circle><circle class="star" cx="112" cy="6" r="0.9" opacity="0.44"><animate attributeName="cy" values="-8;58" dur="13.6s" begin="-9.2s" repeatCount="indefinite"/></circle><circle class="star" cx="112" cy="17" r="0.9" opacity="0.41"><animate attributeName="cy" values="-8;58" dur="14.1s" begin="-5.2s" repeatCount="indefinite"/></circle><circle class="star" cx="87" cy="41" r="1.7" opacity="0.41"><animate attributeName="cy" values="-8;58" dur="14.2s" begin="-2.6s" repeatCount="indefinite"/></circle><circle class="star" cx="45" cy="45" r="0.9" opacity="0.28"><animate attributeName="cy" values="-8;58" dur="17.5s" begin="-3.6s" repeatCount="indefinite"/></circle><circle class="star" cx="13" cy="29" r="1.7" opacity="0.69"><animate attributeName="cy" values="-8;58" dur="7.3s" begin="-2.7s" repeatCount="indefinite"/></circle><circle class="star" cx="43" cy="11" r="0.9" opacity="0.38"><animate attributeName="cy" values="-8;58" dur="15.0s" begin="-1.4s" repeatCount="indefinite"/></circle><circle class="star" cx="97" cy="29" r="0.9" opacity="0.46"><animate attributeName="cy" values="-8;58" dur="12.9s" begin="-1.1s" repeatCount="indefinite"/></circle><circle class="star" cx="83" cy="14" r="0.9" opacity="0.3"><animate attributeName="cy" values="-8;58" dur="17.0s" begin="-10.8s" repeatCount="indefinite"/></circle><circle class="star" cx="115" cy="30" r="1.7" opacity="0.67"><animate attributeName="cy" values="-8;58" dur="7.7s" begin="-7.6s" repeatCount="indefinite"/></circle><circle class="star" cx="130" cy="35" r="1.7" opacity="0.5"><animate attributeName="cy" values="-8;58" dur="12.1s" begin="-4.0s" repeatCount="indefinite"/></circle><circle class="star" cx="127" cy="20" r="0.9" opacity="0.43"><animate attributeName="cy" values="-8;58" dur="13.7s" begin="-8.0s" repeatCount="indefinite"/></circle><circle class="star" cx="27" cy="34" r="1.7" opacity="0.71"><animate attributeName="cy" values="-8;58" dur="6.9s" begin="-4.3s" repeatCount="indefinite"/></circle><circle class="star" cx="52" cy="18" r="0.9" opacity="0.48"><animate attributeName="cy" values="-8;58" dur="12.5s" begin="-8.1s" repeatCount="indefinite"/></circle><circle class="star" cx="116" cy="27" r="0.9" opacity="0.67"><animate attributeName="cy" values="-8;58" dur="7.8s" begin="-1.5s" repeatCount="indefinite"/></circle><circle class="star" cx="7" cy="15" r="0.9" opacity="0.49"><animate attributeName="cy" values="-8;58" dur="12.3s" begin="-11.0s" repeatCount="indefinite"/></circle><rect class="pill" x="14" y="7" width="116" height="36" rx="8"/><g clip-path="url(#pc)"><circle class="star" cx="65" cy="32" r="1.1700000000000002" opacity="0.28"><animate attributeName="cy" values="-1;51" dur="9.0s" begin="-2.0s" repeatCount="indefinite"/></circle><circle class="star" cx="120" cy="24" r="1.1700000000000002" opacity="0.24"><animate attributeName="cy" values="-1;51" dur="11.4s" begin="-4.3s" repeatCount="indefinite"/></circle><circle class="star" cx="64" cy="24" r="1.1700000000000002" opacity="0.15"><animate attributeName="cy" values="-1;51" dur="17.5s" begin="-10.1s" repeatCount="indefinite"/></circle><circle class="star" cx="91" cy="10" r="1.1700000000000002" opacity="0.26"><animate attributeName="cy" values="-1;51" dur="10.4s" begin="-1.5s" repeatCount="indefinite"/></circle><circle class="star" cx="72" cy="8" r="1.1700000000000002" opacity="0.28"><animate attributeName="cy" values="-1;51" dur="9.0s" begin="-7.9s" repeatCount="indefinite"/></circle><circle class="star" cx="65" cy="13" r="2.21" opacity="0.31"><animate attributeName="cy" values="-1;51" dur="7.3s" begin="-2.4s" repeatCount="indefinite"/></circle><circle class="star" cx="125" cy="36" r="1.1700000000000002" opacity="0.19"><animate attributeName="cy" values="-1;51" dur="14.9s" begin="-3.4s" repeatCount="indefinite"/></circle><circle class="star" cx="129" cy="27" r="1.1700000000000002" opacity="0.17"><animate attributeName="cy" values="-1;51" dur="15.9s" begin="-2.0s" repeatCount="indefinite"/></circle><circle class="star" cx="15" cy="40" r="1.1700000000000002" opacity="0.2"><animate attributeName="cy" values="-1;51" dur="14.4s" begin="-10.4s" repeatCount="indefinite"/></circle></g><g transform="translate(27,17.5) scale(0.6250)"><path class="ic" d="M20.447 20.452h-3.554v-5.569c0-1.328-.027-3.037-1.852-3.037-1.853 0-2.136 1.445-2.136 2.939v5.667H9.351V9h3.414v1.561h.046c.477-.9 1.637-1.85 3.37-1.85 3.601 0 4.267 2.37 4.267 5.455v6.286zM5.337 7.433a2.062 2.062 0 01-2.063-2.065 2.064 2.064 0 112.063 2.065zm1.782 13.019H3.555V9h3.564v11.452zM22.225 0H1.771C.792 0 0 .774 0 1.729v20.542C0 23.227.792 24 1.771 24h20.451C23.2 24 24 23.227 24 22.271V1.729C24 .774 23.2 0 22.222 0h.003z"/></g><text class="tx" x="51" y="25" font-size="13" dominant-baseline="central">linkedin</text></svg>