<svg xmlns="http://www.w3.org/2000/svg" viewBox="0 0 1000 392" width="100%" font-family="ui-monospace, 'SF Mono', SFMono-Regular, Menlo, Consolas, 'Liberation Mono', monospace" role="img" aria-label="Tech stack by @atikulmunna">
<!-- Source & credit: github.com/atikulmunna — do not reuse without attribution. --><metadata>Created by @atikulmunna (github.com/atikulmunna). All rights reserved.</metadata><title>@atikulmunna</title>
<style>
  .label { fill:#1f2328; font-weight:700; letter-spacing:2px; }
  .bar   { fill:#1f2328; }
  .pill  { fill:#f3f4f6; stroke:#d0d7de; }
  .pilltx{ fill:#1f2328; }
  .dot   { fill:#1f2328; opacity:.10; }
  @media (prefers-color-scheme: dark) {
    .label { fill:#f0f6fc; }
    .bar   { fill:#f0f6fc; }
    .pill  { fill:#21262d; stroke:#30363d; }
    .pilltx{ fill:#e6edf3; }
    .dot   { fill:#f0f6fc; opacity:.10; }
  }
</style>
<circle class="dot" cx="567" cy="218" r="1.1"/><circle class="dot" cx="930" cy="183" r="1.1"/><circle class="dot" cx="610" cy="229" r="1.1"/><circle class="dot" cx="362" cy="200" r="1.1"/><circle class="dot" cx="704" cy="306" r="1.1"/><circle class="dot" cx="292" cy="122" r="1.1"/><circle class="dot" cx="290" cy="312" r="1.1"/><circle class="dot" cx="753" cy="24" r="1.1"/><circle class="dot" cx="974" cy="371" r="1.1"/><circle class="dot" cx="722" cy="239" r="1.1"/><circle class="dot" cx="341" cy="14" r="1.1"/><circle class="dot" cx="626" cy="30" r="1.1"/><circle class="dot" cx="366" cy="99" r="1.1"/><circle class="dot" cx="243" cy="182" r="1.1"/><circle class="dot" cx="558" cy="325" r="1.1"/><circle class="dot" cx="619" cy="249" r="1.1"/><circle class="dot" cx="604" cy="257" r="1.1"/><circle class="dot" cx="571" cy="113" r="1.1"/><circle class="dot" cx="986" cy="382" r="1.1"/><circle class="dot" cx="865" cy="274" r="1.1"/><circle class="dot" cx="462" cy="94" r="1.1"/><circle class="dot" cx="442" cy="34" r="1.1"/><circle class="dot" cx="809" cy="159" r="1.1"/><circle class="dot" cx="870" cy="153" r="1.1"/><circle class="dot" cx="956" cy="327" r="1.1"/><circle class="dot" cx="220" cy="87" r="1.1"/>
<rect class="bar" x="24" y="32.0" width="4" height="18" rx="1.5"/><text class="label" x="38" y="41.0" font-size="13" dominant-baseline="central">LANGUAGES</text><rect class="pill" x="220" y="26" width="79" height="30" rx="8" stroke-width="1"/><text class="pilltx" x="259.5" y="41.0" font-size="14" text-anchor="middle" dominant-baseline="central">python</text><rect class="pill" x="308" y="26" width="112" height="30" rx="8" stroke-width="1"/><text class="pilltx" x="364.0" y="41.0" font-size="14" text-anchor="middle" dominant-baseline="central">typescript</text><rect class="pill" x="429" y="26" width="79" height="30" rx="8" stroke-width="1"/><text class="pilltx" x="468.5" y="41.0" font-size="14" text-anchor="middle" dominant-baseline="central">kotlin</text><rect class="pill" x="517" y="26" width="37" height="30" rx="8" stroke-width="1"/><text class="pilltx" x="535.5" y="41.0" font-size="14" text-anchor="middle" dominant-baseline="central">c</text><rect class="bar" x="24" y="78.0" width="4" height="18" rx="1.5"/><text class="label" x="38" y="87.0" font-size="13" dominant-baseline="central">AI · ML · CV</text><rect class="pill" x="220" y="72" width="87" height="30" rx="8" stroke-width="1"/><text class="pilltx" x="263.5" y="87.0" font-size="14" text-anchor="middle" dominant-baseline="central">pytorch</text><rect class="pill" x="316" y="72" width="129" height="30" rx="8" stroke-width="1"/><text class="pilltx" x="380.5" y="87.0" font-size="14" text-anchor="middle" dominant-baseline="central">hugging face</text><rect class="pill" x="454" y="72" width="104" height="30" rx="8" stroke-width="1"/><text class="pilltx" x="506.0" y="87.0" font-size="14" text-anchor="middle" dominant-baseline="central">langchain</text><rect class="pill" x="567" y="72" width="104" height="30" rx="8" stroke-width="1"/><text class="pilltx" x="619.0" y="87.0" font-size="14" text-anchor="middle" dominant-baseline="central">langgraph</text><rect class="pill" x="680" y="72" width="121" height="30" rx="8" stroke-width="1"/><text class="pilltx" x="740.5" y="87.0" font-size="14" text-anchor="middle" dominant-baseline="central">ultralytics</text><rect class="pill" x="810" y="72" width="54" height="30" rx="8" stroke-width="1"/><text class="pilltx" x="837.0" y="87.0" font-size="14" text-anchor="middle" dominant-baseline="central">vit</text><rect class="pill" x="220" y="112" width="104" height="30" rx="8" stroke-width="1"/><text class="pilltx" x="272.0" y="127.0" font-size="14" text-anchor="middle" dominant-baseline="central">mediapipe</text><rect class="pill" x="333" y="112" width="79" height="30" rx="8" stroke-width="1"/><text class="pilltx" x="372.5" y="127.0" font-size="14" text-anchor="middle" dominant-baseline="central">opencv</text><rect class="pill" x="421" y="112" width="62" height="30" rx="8" stroke-width="1"/><text class="pilltx" x="452.0" y="127.0" font-size="14" text-anchor="middle" dominant-baseline="central">onnx</text><rect class="pill" x="492" y="112" width="96" height="30" rx="8" stroke-width="1"/><text class="pilltx" x="540.0" y="127.0" font-size="14" text-anchor="middle" dominant-baseline="central">tensorrt</text><rect class="pill" x="597" y="112" width="79" height="30" rx="8" stroke-width="1"/><text class="pilltx" x="636.5" y="127.0" font-size="14" text-anchor="middle" dominant-baseline="central">gradio</text><rect class="pill" x="685" y="112" width="70" height="30" rx="8" stroke-width="1"/><text class="pilltx" x="720.0" y="127.0" font-size="14" text-anchor="middle" dominant-baseline="central">wandb</text><rect class="pill" x="764" y="112" width="96" height="30" rx="8" stroke-width="1"/><text class="pilltx" x="812.0" y="127.0" font-size="14" text-anchor="middle" dominant-baseline="central">roboflow</text><rect class="bar" x="24" y="164.0" width="4" height="18" rx="1.5"/><text class="label" x="38" y="173.0" font-size="13" dominant-baseline="central">DATABASES</text><rect class="pill" x="220" y="158" width="112" height="30" rx="8" stroke-width="1"/><text class="pilltx" x="276.0" y="173.0" font-size="14" text-anchor="middle" dominant-baseline="central">postgresql</text><rect class="pill" x="341" y="158" width="70" height="30" rx="8" stroke-width="1"/><text class="pilltx" x="376.0" y="173.0" font-size="14" text-anchor="middle" dominant-baseline="central">redis</text><rect class="pill" x="420" y="158" width="79" height="30" rx="8" stroke-width="1"/><text class="pilltx" x="459.5" y="173.0" font-size="14" text-anchor="middle" dominant-baseline="central">qdrant</text><rect class="pill" x="508" y="158" width="70" height="30" rx="8" stroke-width="1"/><text class="pilltx" x="543.0" y="173.0" font-size="14" text-anchor="middle" dominant-baseline="central">neo4j</text><rect class="bar" x="24" y="210.0" width="4" height="18" rx="1.5"/><text class="label" x="38" y="219.0" font-size="13" dominant-baseline="central">ROBOTICS</text><rect class="pill" x="220" y="204" width="87" height="30" rx="8" stroke-width="1"/><text class="pilltx" x="263.5" y="219.0" font-size="14" text-anchor="middle" dominant-baseline="central">arduino</text><rect class="pill" x="316" y="204" width="129" height="30" rx="8" stroke-width="1"/><text class="pilltx" x="380.5" y="219.0" font-size="14" text-anchor="middle" dominant-baseline="central">raspberry pi</text><rect class="pill" x="454" y="204" width="79" height="30" rx="8" stroke-width="1"/><text class="pilltx" x="493.5" y="219.0" font-size="14" text-anchor="middle" dominant-baseline="central">mujoco</text><rect class="bar" x="24" y="256.0" width="4" height="18" rx="1.5"/><text class="label" x="38" y="265.0" font-size="13" dominant-baseline="central">BACKEND · DEVOPS</text><rect class="pill" x="220" y="250" width="87" height="30" rx="8" stroke-width="1"/><text class="pilltx" x="263.5" y="265.0" font-size="14" text-anchor="middle" dominant-baseline="central">fastapi</text><rect class="pill" x="316" y="250" width="87" height="30" rx="8" stroke-width="1"/><text class="pilltx" x="359.5" y="265.0" font-size="14" text-anchor="middle" dominant-baseline="central">node.js</text><rect class="pill" x="412" y="250" width="87" height="30" rx="8" stroke-width="1"/><text class="pilltx" x="455.5" y="265.0" font-size="14" text-anchor="middle" dominant-baseline="central">express</text><rect class="pill" x="508" y="250" width="79" height="30" rx="8" stroke-width="1"/><text class="pilltx" x="547.5" y="265.0" font-size="14" text-anchor="middle" dominant-baseline="central">prisma</text><rect class="pill" x="596" y="250" width="70" height="30" rx="8" stroke-width="1"/><text class="pilltx" x="631.0" y="265.0" font-size="14" text-anchor="middle" dominant-baseline="central">kafka</text><rect class="pill" x="675" y="250" width="79" height="30" rx="8" stroke-width="1"/><text class="pilltx" x="714.5" y="265.0" font-size="14" text-anchor="middle" dominant-baseline="central">aws s3</text><rect class="pill" x="763" y="250" width="79" height="30" rx="8" stroke-width="1"/><text class="pilltx" x="802.5" y="265.0" font-size="14" text-anchor="middle" dominant-baseline="central">docker</text><rect class="pill" x="851" y="250" width="79" height="30" rx="8" stroke-width="1"/><text class="pilltx" x="890.5" y="265.0" font-size="14" text-anchor="middle" dominant-baseline="central">vercel</text><rect class="pill" x="220" y="290" width="112" height="30" rx="8" stroke-width="1"/><text class="pilltx" x="276.0" y="305.0" font-size="14" text-anchor="middle" dominant-baseline="central">prometheus</text><rect class="pill" x="341" y="290" width="87" height="30" rx="8" stroke-width="1"/><text class="pilltx" x="384.5" y="305.0" font-size="14" text-anchor="middle" dominant-baseline="central">grafana</text><rect class="bar" x="24" y="342.0" width="4" height="18" rx="1.5"/><text class="label" x="38" y="351.0" font-size="13" dominant-baseline="central">FRONTEND</text><rect class="pill" x="220" y="336" width="70" height="30" rx="8" stroke-width="1"/><text class="pilltx" x="255.0" y="351.0" font-size="14" text-anchor="middle" dominant-baseline="central">react</text><rect class="pill" x="299" y="336" width="87" height="30" rx="8" stroke-width="1"/><text class="pilltx" x="342.5" y="351.0" font-size="14" text-anchor="middle" dominant-baseline="central">next.js</text><rect class="pill" x="395" y="336" width="104" height="30" rx="8" stroke-width="1"/><text class="pilltx" x="447.0" y="351.0" font-size="14" text-anchor="middle" dominant-baseline="central">streamlit</text><rect class="pill" x="508" y="336" width="62" height="30" rx="8" stroke-width="1"/><text class="pilltx" x="539.0" y="351.0" font-size="14" text-anchor="middle" dominant-baseline="central">vite</text><rect class="pill" x="579" y="336" width="129" height="30" rx="8" stroke-width="1"/><text class="pilltx" x="643.5" y="351.0" font-size="14" text-anchor="middle" dominant-baseline="central">tailwind css</text>
<text class="dot" style="opacity:.45" x="984" y="380" text-anchor="end" font-size="11" letter-spacing="0.5">@atikulmunna</text>
</svg>