<svg xmlns="http://www.w3.org/2000/svg" viewBox="0 0 680 590" width="100%" font-family="ui-monospace, 'SF Mono', SFMono-Regular, Menlo, Consolas, 'Liberation Mono', monospace" role="img" aria-label="Tech stack">
<style>
  .label { fill:#1f2328; font-weight:700; letter-spacing:2px; }
  .bar   { fill:#1f2328; }
  .pill  { fill:#f3f4f6; stroke:#d0d7de; }
  .pilltx{ fill:#1f2328; }
  .dot   { fill:#1f2328; opacity:.10; }
  @media (prefers-color-scheme: dark) {
    .label { fill:#f0f6fc; }
    .bar   { fill:#f0f6fc; }
    .pill  { fill:#21262d; stroke:#30363d; }
    .pilltx{ fill:#e6edf3; }
    .dot   { fill:#f0f6fc; opacity:.10; }
  }
</style>
<circle class="dot" cx="412" cy="329" r="1.1"/><circle class="dot" cx="633" cy="275" r="1.1"/><circle class="dot" cx="438" cy="345" r="1.1"/><circle class="dot" cx="286" cy="302" r="1.1"/><circle class="dot" cx="495" cy="463" r="1.1"/><circle class="dot" cx="244" cy="182" r="1.1"/><circle class="dot" cx="242" cy="473" r="1.1"/><circle class="dot" cx="525" cy="32" r="1.1"/><circle class="dot" cx="660" cy="562" r="1.1"/><circle class="dot" cx="506" cy="361" r="1.1"/><circle class="dot" cx="274" cy="17" r="1.1"/><circle class="dot" cx="447" cy="42" r="1.1"/><circle class="dot" cx="289" cy="147" r="1.1"/><circle class="dot" cx="214" cy="274" r="1.1"/><circle class="dot" cx="406" cy="492" r="1.1"/><circle class="dot" cx="443" cy="376" r="1.1"/><circle class="dot" cx="434" cy="388" r="1.1"/><circle class="dot" cx="414" cy="168" r="1.1"/><circle class="dot" cx="667" cy="580" r="1.1"/><circle class="dot" cx="593" cy="414" r="1.1"/><circle class="dot" cx="348" cy="140" r="1.1"/><circle class="dot" cx="335" cy="48" r="1.1"/><circle class="dot" cx="559" cy="238" r="1.1"/><circle class="dot" cx="596" cy="230" r="1.1"/><circle class="dot" cx="648" cy="494" r="1.1"/><circle class="dot" cx="200" cy="128" r="1.1"/>
<rect class="bar" x="20" y="32.0" width="4" height="18" rx="1.5"/><text class="label" x="32" y="41.0" font-size="13" dominant-baseline="central">LANGUAGES</text><rect class="pill" x="200" y="24" width="84" height="34" rx="9" stroke-width="1"/><text class="pilltx" x="242.0" y="41.0" font-size="16" text-anchor="middle" dominant-baseline="central">python</text><rect class="pill" x="292" y="24" width="122" height="34" rx="9" stroke-width="1"/><text class="pilltx" x="353.0" y="41.0" font-size="16" text-anchor="middle" dominant-baseline="central">typescript</text><rect class="pill" x="422" y="24" width="84" height="34" rx="9" stroke-width="1"/><text class="pilltx" x="464.0" y="41.0" font-size="16" text-anchor="middle" dominant-baseline="central">kotlin</text><rect class="pill" x="514" y="24" width="36" height="34" rx="9" stroke-width="1"/><text class="pilltx" x="532.0" y="41.0" font-size="16" text-anchor="middle" dominant-baseline="central">c</text><rect class="pill" x="558" y="24" width="46" height="34" rx="9" stroke-width="1"/><text class="pilltx" x="581.0" y="41.0" font-size="16" text-anchor="middle" dominant-baseline="central">go</text><rect class="bar" x="20" y="82.0" width="4" height="18" rx="1.5"/><text class="label" x="32" y="91.0" font-size="13" dominant-baseline="central">AI · ML · CV</text><rect class="pill" x="200" y="74" width="94" height="34" rx="9" stroke-width="1"/><text class="pilltx" x="247.0" y="91.0" font-size="16" text-anchor="middle" dominant-baseline="central">pytorch</text><rect class="pill" x="302" y="74" width="142" height="34" rx="9" stroke-width="1"/><text class="pilltx" x="373.0" y="91.0" font-size="16" text-anchor="middle" dominant-baseline="central">hugging face</text><rect class="pill" x="452" y="74" width="113" height="34" rx="9" stroke-width="1"/><text class="pilltx" x="508.5" y="91.0" font-size="16" text-anchor="middle" dominant-baseline="central">langchain</text><rect class="pill" x="200" y="117" width="113" height="34" rx="9" stroke-width="1"/><text class="pilltx" x="256.5" y="134.0" font-size="16" text-anchor="middle" dominant-baseline="central">langgraph</text><rect class="pill" x="321" y="117" width="132" height="34" rx="9" stroke-width="1"/><text class="pilltx" x="387.0" y="134.0" font-size="16" text-anchor="middle" dominant-baseline="central">ultralytics</text><rect class="pill" x="461" y="117" width="55" height="34" rx="9" stroke-width="1"/><text class="pilltx" x="488.5" y="134.0" font-size="16" text-anchor="middle" dominant-baseline="central">vit</text><rect class="pill" x="524" y="117" width="113" height="34" rx="9" stroke-width="1"/><text class="pilltx" x="580.5" y="134.0" font-size="16" text-anchor="middle" dominant-baseline="central">mediapipe</text><rect class="pill" x="200" y="160" width="84" height="34" rx="9" stroke-width="1"/><text class="pilltx" x="242.0" y="177.0" font-size="16" text-anchor="middle" dominant-baseline="central">opencv</text><rect class="pill" x="292" y="160" width="65" height="34" rx="9" stroke-width="1"/><text class="pilltx" x="324.5" y="177.0" font-size="16" text-anchor="middle" dominant-baseline="central">onnx</text><rect class="pill" x="365" y="160" width="103" height="34" rx="9" stroke-width="1"/><text class="pilltx" x="416.5" y="177.0" font-size="16" text-anchor="middle" dominant-baseline="central">tensorrt</text><rect class="pill" x="476" y="160" width="84" height="34" rx="9" stroke-width="1"/><text class="pilltx" x="518.0" y="177.0" font-size="16" text-anchor="middle" dominant-baseline="central">gradio</text><rect class="pill" x="568" y="160" width="74" height="34" rx="9" stroke-width="1"/><text class="pilltx" x="605.0" y="177.0" font-size="16" text-anchor="middle" dominant-baseline="central">wandb</text><rect class="pill" x="200" y="203" width="103" height="34" rx="9" stroke-width="1"/><text class="pilltx" x="251.5" y="220.0" font-size="16" text-anchor="middle" dominant-baseline="central">roboflow</text><rect class="bar" x="20" y="261.0" width="4" height="18" rx="1.5"/><text class="label" x="32" y="270.0" font-size="13" dominant-baseline="central">DATABASES</text><rect class="pill" x="200" y="253" width="122" height="34" rx="9" stroke-width="1"/><text class="pilltx" x="261.0" y="270.0" font-size="16" text-anchor="middle" dominant-baseline="central">postgresql</text><rect class="pill" x="330" y="253" width="74" height="34" rx="9" stroke-width="1"/><text class="pilltx" x="367.0" y="270.0" font-size="16" text-anchor="middle" dominant-baseline="central">redis</text><rect class="pill" x="412" y="253" width="84" height="34" rx="9" stroke-width="1"/><text class="pilltx" x="454.0" y="270.0" font-size="16" text-anchor="middle" dominant-baseline="central">qdrant</text><rect class="pill" x="504" y="253" width="74" height="34" rx="9" stroke-width="1"/><text class="pilltx" x="541.0" y="270.0" font-size="16" text-anchor="middle" dominant-baseline="central">neo4j</text><rect class="bar" x="20" y="311.0" width="4" height="18" rx="1.5"/><text class="label" x="32" y="320.0" font-size="13" dominant-baseline="central">ROBOTICS</text><rect class="pill" x="200" y="303" width="94" height="34" rx="9" stroke-width="1"/><text class="pilltx" x="247.0" y="320.0" font-size="16" text-anchor="middle" dominant-baseline="central">arduino</text><rect class="pill" x="302" y="303" width="142" height="34" rx="9" stroke-width="1"/><text class="pilltx" x="373.0" y="320.0" font-size="16" text-anchor="middle" dominant-baseline="central">raspberry pi</text><rect class="pill" x="452" y="303" width="84" height="34" rx="9" stroke-width="1"/><text class="pilltx" x="494.0" y="320.0" font-size="16" text-anchor="middle" dominant-baseline="central">mujoco</text><rect class="bar" x="20" y="361.0" width="4" height="18" rx="1.5"/><text class="label" x="32" y="370.0" font-size="13" dominant-baseline="central">BACKEND · DEVOPS</text><rect class="pill" x="200" y="353" width="94" height="34" rx="9" stroke-width="1"/><text class="pilltx" x="247.0" y="370.0" font-size="16" text-anchor="middle" dominant-baseline="central">fastapi</text><rect class="pill" x="302" y="353" width="94" height="34" rx="9" stroke-width="1"/><text class="pilltx" x="349.0" y="370.0" font-size="16" text-anchor="middle" dominant-baseline="central">node.js</text><rect class="pill" x="404" y="353" width="94" height="34" rx="9" stroke-width="1"/><text class="pilltx" x="451.0" y="370.0" font-size="16" text-anchor="middle" dominant-baseline="central">express</text><rect class="pill" x="506" y="353" width="84" height="34" rx="9" stroke-width="1"/><text class="pilltx" x="548.0" y="370.0" font-size="16" text-anchor="middle" dominant-baseline="central">prisma</text><rect class="pill" x="200" y="396" width="74" height="34" rx="9" stroke-width="1"/><text class="pilltx" x="237.0" y="413.0" font-size="16" text-anchor="middle" dominant-baseline="central">kafka</text><rect class="pill" x="282" y="396" width="84" height="34" rx="9" stroke-width="1"/><text class="pilltx" x="324.0" y="413.0" font-size="16" text-anchor="middle" dominant-baseline="central">aws s3</text><rect class="pill" x="374" y="396" width="84" height="34" rx="9" stroke-width="1"/><text class="pilltx" x="416.0" y="413.0" font-size="16" text-anchor="middle" dominant-baseline="central">docker</text><rect class="pill" x="466" y="396" width="84" height="34" rx="9" stroke-width="1"/><text class="pilltx" x="508.0" y="413.0" font-size="16" text-anchor="middle" dominant-baseline="central">vercel</text><rect class="pill" x="200" y="439" width="122" height="34" rx="9" stroke-width="1"/><text class="pilltx" x="261.0" y="456.0" font-size="16" text-anchor="middle" dominant-baseline="central">prometheus</text><rect class="pill" x="330" y="439" width="94" height="34" rx="9" stroke-width="1"/><text class="pilltx" x="377.0" y="456.0" font-size="16" text-anchor="middle" dominant-baseline="central">grafana</text><rect class="bar" x="20" y="497.0" width="4" height="18" rx="1.5"/><text class="label" x="32" y="506.0" font-size="13" dominant-baseline="central">FRONTEND</text><rect class="pill" x="200" y="489" width="74" height="34" rx="9" stroke-width="1"/><text class="pilltx" x="237.0" y="506.0" font-size="16" text-anchor="middle" dominant-baseline="central">react</text><rect class="pill" x="282" y="489" width="94" height="34" rx="9" stroke-width="1"/><text class="pilltx" x="329.0" y="506.0" font-size="16" text-anchor="middle" dominant-baseline="central">next.js</text><rect class="pill" x="384" y="489" width="113" height="34" rx="9" stroke-width="1"/><text class="pilltx" x="440.5" y="506.0" font-size="16" text-anchor="middle" dominant-baseline="central">streamlit</text><rect class="pill" x="505" y="489" width="65" height="34" rx="9" stroke-width="1"/><text class="pilltx" x="537.5" y="506.0" font-size="16" text-anchor="middle" dominant-baseline="central">vite</text><rect class="pill" x="200" y="532" width="142" height="34" rx="9" stroke-width="1"/><text class="pilltx" x="271.0" y="549.0" font-size="16" text-anchor="middle" dominant-baseline="central">tailwind css</text>
</svg>